<mxfile host="app.diagrams.net" modified="2023-12-21T06:51:45.954Z" agent="Mozilla/5.0 (Windows NT 10.0; Win64; x64) AppleWebKit/537.36 (KHTML, like Gecko) Chrome/120.0.0.0 Safari/537.36" etag="ftIoSEJ3uWEhnmXh4Jy-" version="22.1.11" type="github">
  <diagram name="Страница — 1" id="gX5QVnBPWUQICoui4-p0">
    <mxGraphModel dx="2625" dy="1393" grid="1" gridSize="10" guides="1" tooltips="1" connect="1" arrows="1" fold="1" page="1" pageScale="1" pageWidth="3000" pageHeight="3000" math="0" shadow="0">
      <root>
        <mxCell id="0" />
        <mxCell id="1" parent="0" />
        <mxCell id="NpU9XMhVVGKhABVKQ77v-6" value="&lt;font style=&quot;font-size: 64px;&quot;&gt;Car rental system&lt;/font&gt;" style="text;html=1;strokeColor=none;fillColor=none;align=center;verticalAlign=middle;whiteSpace=wrap;rounded=0;" parent="1" vertex="1">
          <mxGeometry x="1150" y="70" width="700" height="30" as="geometry" />
        </mxCell>
        <mxCell id="h4NKM3wreXdGoletls02-38" value="" style="group" parent="1" vertex="1" connectable="0">
          <mxGeometry x="390" y="730" width="760" height="500" as="geometry" />
        </mxCell>
        <mxCell id="h4NKM3wreXdGoletls02-34" value="" style="rounded=1;whiteSpace=wrap;html=1;fillColor=#f5f5f5;strokeColor=#666666;fontColor=#333333;" parent="h4NKM3wreXdGoletls02-38" vertex="1">
          <mxGeometry width="760" height="500" as="geometry" />
        </mxCell>
        <mxCell id="h4NKM3wreXdGoletls02-45" value="" style="edgeStyle=orthogonalEdgeStyle;rounded=0;orthogonalLoop=1;jettySize=auto;html=1;" parent="h4NKM3wreXdGoletls02-38" source="h4NKM3wreXdGoletls02-21" target="h4NKM3wreXdGoletls02-25" edge="1">
          <mxGeometry relative="1" as="geometry">
            <Array as="points">
              <mxPoint x="220" y="265" />
              <mxPoint x="220" y="265" />
            </Array>
          </mxGeometry>
        </mxCell>
        <mxCell id="h4NKM3wreXdGoletls02-21" value="Cars management" style="rounded=1;whiteSpace=wrap;html=1;fillColor=#f5f5f5;strokeColor=#666666;fontColor=#333333;" parent="h4NKM3wreXdGoletls02-38" vertex="1">
          <mxGeometry x="30" y="234.090909090909" width="120" height="61.36363636363636" as="geometry" />
        </mxCell>
        <mxCell id="h4NKM3wreXdGoletls02-23" value="AddCar{&lt;br&gt;CarAdd carAdd&lt;br&gt;}" style="whiteSpace=wrap;html=1;rounded=1;fillColor=#f5f5f5;strokeColor=#666666;fontColor=#333333;" parent="h4NKM3wreXdGoletls02-38" vertex="1">
          <mxGeometry x="240" y="101.13636363636363" width="120" height="61.36363636363636" as="geometry" />
        </mxCell>
        <mxCell id="h4NKM3wreXdGoletls02-19" value="" style="edgeStyle=orthogonalEdgeStyle;rounded=0;orthogonalLoop=1;jettySize=auto;html=1;fillColor=#f5f5f5;strokeColor=#666666;" parent="h4NKM3wreXdGoletls02-38" source="h4NKM3wreXdGoletls02-21" target="h4NKM3wreXdGoletls02-23" edge="1">
          <mxGeometry relative="1" as="geometry">
            <Array as="points">
              <mxPoint x="220" y="264.77272727272725" />
              <mxPoint x="220" y="111.36363636363637" />
            </Array>
          </mxGeometry>
        </mxCell>
        <mxCell id="h4NKM3wreXdGoletls02-25" value="UpdCar{&lt;br&gt;Cars cars&lt;br&gt;}" style="whiteSpace=wrap;html=1;rounded=1;fillColor=#f5f5f5;strokeColor=#666666;fontColor=#333333;" parent="h4NKM3wreXdGoletls02-38" vertex="1">
          <mxGeometry x="240" y="223.86363636363637" width="120" height="61.36363636363636" as="geometry" />
        </mxCell>
        <mxCell id="h4NKM3wreXdGoletls02-22" value="" style="edgeStyle=orthogonalEdgeStyle;rounded=0;orthogonalLoop=1;jettySize=auto;html=1;fillColor=#f5f5f5;strokeColor=#666666;" parent="h4NKM3wreXdGoletls02-38" source="h4NKM3wreXdGoletls02-23" target="h4NKM3wreXdGoletls02-26" edge="1">
          <mxGeometry relative="1" as="geometry" />
        </mxCell>
        <mxCell id="h4NKM3wreXdGoletls02-24" value="" style="edgeStyle=orthogonalEdgeStyle;rounded=0;orthogonalLoop=1;jettySize=auto;html=1;fillColor=#f5f5f5;strokeColor=#666666;" parent="h4NKM3wreXdGoletls02-38" source="h4NKM3wreXdGoletls02-25" target="h4NKM3wreXdGoletls02-27" edge="1">
          <mxGeometry relative="1" as="geometry" />
        </mxCell>
        <mxCell id="h4NKM3wreXdGoletls02-29" value="CarDel{&lt;br&gt;int carId&lt;br&gt;}" style="whiteSpace=wrap;html=1;rounded=1;fillColor=#f5f5f5;strokeColor=#666666;fontColor=#333333;" parent="h4NKM3wreXdGoletls02-38" vertex="1">
          <mxGeometry x="240" y="356.81818181818176" width="120" height="61.36363636363636" as="geometry" />
        </mxCell>
        <mxCell id="h4NKM3wreXdGoletls02-20" value="" style="edgeStyle=orthogonalEdgeStyle;rounded=0;orthogonalLoop=1;jettySize=auto;html=1;fillColor=#f5f5f5;strokeColor=#666666;" parent="h4NKM3wreXdGoletls02-38" source="h4NKM3wreXdGoletls02-21" target="h4NKM3wreXdGoletls02-29" edge="1">
          <mxGeometry relative="1" as="geometry">
            <Array as="points">
              <mxPoint x="220" y="264.77272727272725" />
              <mxPoint x="220" y="387.5" />
            </Array>
          </mxGeometry>
        </mxCell>
        <mxCell id="h4NKM3wreXdGoletls02-30" value="Successful{&lt;br style=&quot;border-color: var(--border-color);&quot;&gt;message: &quot;car has been deleted&quot;&lt;br style=&quot;border-color: var(--border-color);&quot;&gt;}&lt;br style=&quot;border-color: var(--border-color);&quot;&gt;Failed{&lt;br style=&quot;border-color: var(--border-color);&quot;&gt;message: error&lt;br style=&quot;border-color: var(--border-color);&quot;&gt;}" style="whiteSpace=wrap;html=1;rounded=1;fillColor=#f5f5f5;strokeColor=#666666;fontColor=#333333;" parent="h4NKM3wreXdGoletls02-38" vertex="1">
          <mxGeometry x="500" y="356.81818181818176" width="210" height="102.27272727272727" as="geometry" />
        </mxCell>
        <mxCell id="h4NKM3wreXdGoletls02-28" value="" style="edgeStyle=orthogonalEdgeStyle;rounded=0;orthogonalLoop=1;jettySize=auto;html=1;fillColor=#f5f5f5;strokeColor=#666666;" parent="h4NKM3wreXdGoletls02-38" source="h4NKM3wreXdGoletls02-29" target="h4NKM3wreXdGoletls02-30" edge="1">
          <mxGeometry relative="1" as="geometry" />
        </mxCell>
        <mxCell id="h4NKM3wreXdGoletls02-27" value="Successful{&lt;br&gt;message: &quot;car has been changed&quot;&lt;br&gt;}&lt;br&gt;Failed{&lt;br&gt;message: error&lt;br&gt;}" style="whiteSpace=wrap;html=1;rounded=1;fillColor=#f5f5f5;strokeColor=#666666;fontColor=#333333;" parent="h4NKM3wreXdGoletls02-38" vertex="1">
          <mxGeometry x="500" y="193.18181818181824" width="200" height="112.49999999999999" as="geometry" />
        </mxCell>
        <mxCell id="h4NKM3wreXdGoletls02-26" value="Successful{&lt;br&gt;message: &quot;car has been added&quot;&lt;br&gt;}&lt;br&gt;Failed{&lt;br&gt;message: error&lt;br&gt;}" style="whiteSpace=wrap;html=1;rounded=1;fillColor=#f5f5f5;strokeColor=#666666;fontColor=#333333;" parent="h4NKM3wreXdGoletls02-38" vertex="1">
          <mxGeometry x="510" y="80.68181818181813" width="190" height="92.04545454545453" as="geometry" />
        </mxCell>
        <mxCell id="h4NKM3wreXdGoletls02-37" value="Cars" style="text;html=1;strokeColor=none;fillColor=none;align=center;verticalAlign=middle;whiteSpace=wrap;rounded=0;" parent="h4NKM3wreXdGoletls02-38" vertex="1">
          <mxGeometry x="360" y="20" width="60" height="30" as="geometry" />
        </mxCell>
        <mxCell id="h4NKM3wreXdGoletls02-41" value="" style="group" parent="1" vertex="1" connectable="0">
          <mxGeometry x="390" y="240" width="770" height="440" as="geometry" />
        </mxCell>
        <mxCell id="h4NKM3wreXdGoletls02-39" value="" style="rounded=1;whiteSpace=wrap;html=1;fillColor=#d5e8d4;strokeColor=#82b366;" parent="h4NKM3wreXdGoletls02-41" vertex="1">
          <mxGeometry width="770" height="440" as="geometry" />
        </mxCell>
        <mxCell id="NpU9XMhVVGKhABVKQ77v-34" value="" style="edgeStyle=orthogonalEdgeStyle;rounded=0;orthogonalLoop=1;jettySize=auto;html=1;fillColor=#d5e8d4;strokeColor=#82b366;" parent="h4NKM3wreXdGoletls02-41" target="NpU9XMhVVGKhABVKQ77v-33" edge="1">
          <mxGeometry relative="1" as="geometry">
            <mxPoint x="110.00000000000011" y="250.03703703703707" as="sourcePoint" />
            <Array as="points">
              <mxPoint x="190" y="250" />
              <mxPoint x="190" y="310" />
            </Array>
          </mxGeometry>
        </mxCell>
        <mxCell id="NpU9XMhVVGKhABVKQ77v-5" value="Authentication" style="rounded=1;whiteSpace=wrap;html=1;fillColor=#d5e8d4;strokeColor=#82b366;" parent="h4NKM3wreXdGoletls02-41" vertex="1">
          <mxGeometry x="20" y="220" width="120" height="60" as="geometry" />
        </mxCell>
        <mxCell id="NpU9XMhVVGKhABVKQ77v-7" value="Log in&lt;br&gt;&lt;br&gt;request{&lt;br&gt;UserAuth userAuth&lt;br&gt;}" style="whiteSpace=wrap;html=1;rounded=1;fillColor=#d5e8d4;strokeColor=#82b366;" parent="h4NKM3wreXdGoletls02-41" vertex="1">
          <mxGeometry x="250" y="130" width="160" height="90" as="geometry" />
        </mxCell>
        <mxCell id="NpU9XMhVVGKhABVKQ77v-31" value="" style="edgeStyle=orthogonalEdgeStyle;rounded=0;orthogonalLoop=1;jettySize=auto;html=1;fillColor=#d5e8d4;strokeColor=#82b366;" parent="h4NKM3wreXdGoletls02-41" source="NpU9XMhVVGKhABVKQ77v-5" target="NpU9XMhVVGKhABVKQ77v-7" edge="1">
          <mxGeometry relative="1" as="geometry">
            <Array as="points">
              <mxPoint x="190" y="250" />
              <mxPoint x="190" y="175" />
            </Array>
          </mxGeometry>
        </mxCell>
        <mxCell id="NpU9XMhVVGKhABVKQ77v-29" value="Successful{&lt;br&gt;userId&lt;br&gt;}&lt;br&gt;Failed{&lt;br&gt;message: &quot;user not found&lt;span style=&quot;background-color: initial;&quot;&gt;&quot;&lt;br&gt;&lt;/span&gt;}" style="whiteSpace=wrap;html=1;rounded=1;fillColor=#d5e8d4;strokeColor=#82b366;" parent="h4NKM3wreXdGoletls02-41" vertex="1">
          <mxGeometry x="490" y="70" width="150" height="105" as="geometry" />
        </mxCell>
        <mxCell id="NpU9XMhVVGKhABVKQ77v-30" value="" style="edgeStyle=orthogonalEdgeStyle;rounded=0;orthogonalLoop=1;jettySize=auto;html=1;fillColor=#d5e8d4;strokeColor=#82b366;" parent="h4NKM3wreXdGoletls02-41" source="NpU9XMhVVGKhABVKQ77v-7" target="NpU9XMhVVGKhABVKQ77v-29" edge="1">
          <mxGeometry relative="1" as="geometry" />
        </mxCell>
        <mxCell id="NpU9XMhVVGKhABVKQ77v-33" value="Registration&lt;br&gt;request{&lt;br&gt;UserReq userReq&lt;br&gt;}" style="whiteSpace=wrap;html=1;rounded=1;fillColor=#d5e8d4;strokeColor=#82b366;" parent="h4NKM3wreXdGoletls02-41" vertex="1">
          <mxGeometry x="250" y="260" width="160" height="80" as="geometry" />
        </mxCell>
        <mxCell id="NpU9XMhVVGKhABVKQ77v-36" value="Successful{&lt;br&gt;message: &quot;User has been created.&lt;span style=&quot;background-color: initial;&quot;&gt;&quot;&lt;/span&gt;&lt;br&gt;}&lt;br&gt;Failde{&lt;br&gt;user with this login already registred&lt;br&gt;}" style="whiteSpace=wrap;html=1;rounded=1;fillColor=#d5e8d4;strokeColor=#82b366;" parent="h4NKM3wreXdGoletls02-41" vertex="1">
          <mxGeometry x="490" y="220" width="180" height="160" as="geometry" />
        </mxCell>
        <mxCell id="NpU9XMhVVGKhABVKQ77v-37" value="" style="edgeStyle=orthogonalEdgeStyle;rounded=0;orthogonalLoop=1;jettySize=auto;html=1;fillColor=#d5e8d4;strokeColor=#82b366;" parent="h4NKM3wreXdGoletls02-41" source="NpU9XMhVVGKhABVKQ77v-33" target="NpU9XMhVVGKhABVKQ77v-36" edge="1">
          <mxGeometry relative="1" as="geometry" />
        </mxCell>
        <mxCell id="h4NKM3wreXdGoletls02-40" value="Users" style="text;html=1;strokeColor=none;fillColor=none;align=center;verticalAlign=middle;whiteSpace=wrap;rounded=0;" parent="h4NKM3wreXdGoletls02-41" vertex="1">
          <mxGeometry x="355" y="20" width="60" height="30" as="geometry" />
        </mxCell>
        <mxCell id="h4NKM3wreXdGoletls02-43" value="" style="group" parent="1" vertex="1" connectable="0">
          <mxGeometry x="1520" y="740" width="1000" height="610" as="geometry" />
        </mxCell>
        <mxCell id="h4NKM3wreXdGoletls02-42" value="" style="rounded=1;whiteSpace=wrap;html=1;fillColor=#e1d5e7;strokeColor=#9673a6;" parent="h4NKM3wreXdGoletls02-43" vertex="1">
          <mxGeometry width="1000" height="610" as="geometry" />
        </mxCell>
        <mxCell id="NpU9XMhVVGKhABVKQ77v-10" value="Models" style="rounded=1;whiteSpace=wrap;html=1;fillColor=#e1d5e7;strokeColor=#9673a6;" parent="h4NKM3wreXdGoletls02-43" vertex="1">
          <mxGeometry x="450" y="35" width="120" height="60" as="geometry" />
        </mxCell>
        <mxCell id="NpU9XMhVVGKhABVKQ77v-11" value="User&lt;br&gt;int id;&lt;br&gt;string name;&lt;br&gt;int ordersCount;&lt;br&gt;string login;&lt;br&gt;string pass;" style="whiteSpace=wrap;html=1;rounded=1;fillColor=#e1d5e7;strokeColor=#9673a6;" parent="h4NKM3wreXdGoletls02-43" vertex="1">
          <mxGeometry x="150" y="235" width="140" height="120" as="geometry" />
        </mxCell>
        <mxCell id="NpU9XMhVVGKhABVKQ77v-12" value="" style="edgeStyle=orthogonalEdgeStyle;rounded=0;orthogonalLoop=1;jettySize=auto;html=1;fillColor=#e1d5e7;strokeColor=#9673a6;" parent="h4NKM3wreXdGoletls02-43" source="NpU9XMhVVGKhABVKQ77v-10" target="NpU9XMhVVGKhABVKQ77v-11" edge="1">
          <mxGeometry relative="1" as="geometry" />
        </mxCell>
        <mxCell id="NpU9XMhVVGKhABVKQ77v-13" value="Cars&lt;br&gt;int id;&lt;br&gt;string name;&lt;br&gt;string image;&lt;br&gt;int price;&lt;br&gt;int ordersCount;&lt;br&gt;bool isAvailable;" style="whiteSpace=wrap;html=1;rounded=1;fillColor=#e1d5e7;strokeColor=#9673a6;" parent="h4NKM3wreXdGoletls02-43" vertex="1">
          <mxGeometry x="520" y="245" width="120" height="120" as="geometry" />
        </mxCell>
        <mxCell id="NpU9XMhVVGKhABVKQ77v-14" value="" style="edgeStyle=orthogonalEdgeStyle;rounded=0;orthogonalLoop=1;jettySize=auto;html=1;fillColor=#e1d5e7;strokeColor=#9673a6;" parent="h4NKM3wreXdGoletls02-43" source="NpU9XMhVVGKhABVKQ77v-10" target="NpU9XMhVVGKhABVKQ77v-13" edge="1">
          <mxGeometry relative="1" as="geometry" />
        </mxCell>
        <mxCell id="NpU9XMhVVGKhABVKQ77v-15" value="Order&lt;br&gt;int id;&lt;br&gt;string startDate;&lt;br&gt;string endDate;&lt;br&gt;int userId;&lt;br&gt;int carId;" style="whiteSpace=wrap;html=1;rounded=1;fillColor=#e1d5e7;strokeColor=#9673a6;" parent="h4NKM3wreXdGoletls02-43" vertex="1">
          <mxGeometry x="810" y="235" width="120" height="120" as="geometry" />
        </mxCell>
        <mxCell id="NpU9XMhVVGKhABVKQ77v-16" value="" style="edgeStyle=orthogonalEdgeStyle;rounded=0;orthogonalLoop=1;jettySize=auto;html=1;fillColor=#e1d5e7;strokeColor=#9673a6;" parent="h4NKM3wreXdGoletls02-43" source="NpU9XMhVVGKhABVKQ77v-10" target="NpU9XMhVVGKhABVKQ77v-15" edge="1">
          <mxGeometry relative="1" as="geometry" />
        </mxCell>
        <mxCell id="NpU9XMhVVGKhABVKQ77v-19" value="UserAuth&lt;br&gt;string login;&lt;br&gt;string pass;" style="whiteSpace=wrap;html=1;rounded=1;fillColor=#e1d5e7;strokeColor=#9673a6;" parent="h4NKM3wreXdGoletls02-43" vertex="1">
          <mxGeometry x="30" y="475" width="120" height="60" as="geometry" />
        </mxCell>
        <mxCell id="NpU9XMhVVGKhABVKQ77v-20" value="" style="edgeStyle=orthogonalEdgeStyle;rounded=0;orthogonalLoop=1;jettySize=auto;html=1;fillColor=#e1d5e7;strokeColor=#9673a6;" parent="h4NKM3wreXdGoletls02-43" source="NpU9XMhVVGKhABVKQ77v-11" target="NpU9XMhVVGKhABVKQ77v-19" edge="1">
          <mxGeometry relative="1" as="geometry" />
        </mxCell>
        <mxCell id="NpU9XMhVVGKhABVKQ77v-21" value="CarAdd&lt;br&gt;string name;&lt;br&gt;string image;&lt;br&gt;int price;" style="whiteSpace=wrap;html=1;rounded=1;fillColor=#e1d5e7;strokeColor=#9673a6;" parent="h4NKM3wreXdGoletls02-43" vertex="1">
          <mxGeometry x="400" y="475" width="120" height="60" as="geometry" />
        </mxCell>
        <mxCell id="NpU9XMhVVGKhABVKQ77v-22" value="" style="edgeStyle=orthogonalEdgeStyle;rounded=0;orthogonalLoop=1;jettySize=auto;html=1;fillColor=#e1d5e7;strokeColor=#9673a6;" parent="h4NKM3wreXdGoletls02-43" source="NpU9XMhVVGKhABVKQ77v-13" target="NpU9XMhVVGKhABVKQ77v-21" edge="1">
          <mxGeometry relative="1" as="geometry">
            <Array as="points">
              <mxPoint x="580" y="425" />
              <mxPoint x="460" y="425" />
            </Array>
          </mxGeometry>
        </mxCell>
        <mxCell id="NpU9XMhVVGKhABVKQ77v-25" value="UserReq&lt;br&gt;User user;" style="whiteSpace=wrap;html=1;rounded=1;fillColor=#e1d5e7;strokeColor=#9673a6;" parent="h4NKM3wreXdGoletls02-43" vertex="1">
          <mxGeometry x="230" y="475" width="120" height="60" as="geometry" />
        </mxCell>
        <mxCell id="NpU9XMhVVGKhABVKQ77v-26" value="" style="edgeStyle=orthogonalEdgeStyle;rounded=0;orthogonalLoop=1;jettySize=auto;html=1;fillColor=#e1d5e7;strokeColor=#9673a6;" parent="h4NKM3wreXdGoletls02-43" source="NpU9XMhVVGKhABVKQ77v-11" target="NpU9XMhVVGKhABVKQ77v-25" edge="1">
          <mxGeometry relative="1" as="geometry" />
        </mxCell>
        <mxCell id="h4NKM3wreXdGoletls02-10" value="CarDelete&lt;br&gt;int carId;" style="whiteSpace=wrap;html=1;rounded=1;fillColor=#e1d5e7;strokeColor=#9673a6;" parent="h4NKM3wreXdGoletls02-43" vertex="1">
          <mxGeometry x="620" y="475" width="120" height="60" as="geometry" />
        </mxCell>
        <mxCell id="h4NKM3wreXdGoletls02-11" value="" style="edgeStyle=orthogonalEdgeStyle;rounded=0;orthogonalLoop=1;jettySize=auto;html=1;fillColor=#e1d5e7;strokeColor=#9673a6;" parent="h4NKM3wreXdGoletls02-43" source="NpU9XMhVVGKhABVKQ77v-13" target="h4NKM3wreXdGoletls02-10" edge="1">
          <mxGeometry relative="1" as="geometry" />
        </mxCell>
        <mxCell id="h4NKM3wreXdGoletls02-51" value="OrderDelete&lt;br&gt;int orderId;" style="whiteSpace=wrap;html=1;fillColor=#e1d5e7;strokeColor=#9673a6;rounded=1;" parent="h4NKM3wreXdGoletls02-43" vertex="1">
          <mxGeometry x="810" y="450" width="120" height="60" as="geometry" />
        </mxCell>
        <mxCell id="h4NKM3wreXdGoletls02-52" value="" style="edgeStyle=orthogonalEdgeStyle;rounded=0;orthogonalLoop=1;jettySize=auto;html=1;" parent="h4NKM3wreXdGoletls02-43" source="NpU9XMhVVGKhABVKQ77v-15" target="h4NKM3wreXdGoletls02-51" edge="1">
          <mxGeometry relative="1" as="geometry" />
        </mxCell>
        <mxCell id="h4NKM3wreXdGoletls02-113" value="" style="group" parent="1" vertex="1" connectable="0">
          <mxGeometry x="390" y="1290" width="760" height="482.04999999999995" as="geometry" />
        </mxCell>
        <mxCell id="h4NKM3wreXdGoletls02-111" value="" style="rounded=1;whiteSpace=wrap;html=1;" parent="h4NKM3wreXdGoletls02-113" vertex="1">
          <mxGeometry width="760" height="482.05" as="geometry" />
        </mxCell>
        <mxCell id="h4NKM3wreXdGoletls02-48" value="Orders Managment" style="rounded=1;whiteSpace=wrap;html=1;" parent="h4NKM3wreXdGoletls02-113" vertex="1">
          <mxGeometry x="30" y="230" width="120" height="60" as="geometry" />
        </mxCell>
        <mxCell id="h4NKM3wreXdGoletls02-49" value="AddOrder{&lt;br&gt;Order order&lt;br&gt;}" style="whiteSpace=wrap;html=1;rounded=1;" parent="h4NKM3wreXdGoletls02-113" vertex="1">
          <mxGeometry x="240" y="100" width="170" height="90" as="geometry" />
        </mxCell>
        <mxCell id="h4NKM3wreXdGoletls02-50" value="" style="edgeStyle=orthogonalEdgeStyle;rounded=0;orthogonalLoop=1;jettySize=auto;html=1;" parent="h4NKM3wreXdGoletls02-113" source="h4NKM3wreXdGoletls02-48" target="h4NKM3wreXdGoletls02-49" edge="1">
          <mxGeometry relative="1" as="geometry">
            <Array as="points">
              <mxPoint x="220" y="260" />
              <mxPoint x="220" y="160" />
            </Array>
          </mxGeometry>
        </mxCell>
        <mxCell id="h4NKM3wreXdGoletls02-69" value="Successful{&lt;br&gt;message: &quot;order has been created&quot;&lt;br&gt;}&lt;br&gt;Failed{&lt;br&gt;message: error&lt;br&gt;}" style="whiteSpace=wrap;html=1;rounded=1;" parent="h4NKM3wreXdGoletls02-113" vertex="1">
          <mxGeometry x="480" y="97.95000000000005" width="230" height="92.05" as="geometry" />
        </mxCell>
        <mxCell id="h4NKM3wreXdGoletls02-70" value="" style="edgeStyle=orthogonalEdgeStyle;rounded=0;orthogonalLoop=1;jettySize=auto;html=1;" parent="h4NKM3wreXdGoletls02-113" source="h4NKM3wreXdGoletls02-49" target="h4NKM3wreXdGoletls02-69" edge="1">
          <mxGeometry relative="1" as="geometry" />
        </mxCell>
        <mxCell id="h4NKM3wreXdGoletls02-71" value="DelOrder{&lt;br&gt;int orderId&lt;br&gt;}" style="whiteSpace=wrap;html=1;rounded=1;" parent="h4NKM3wreXdGoletls02-113" vertex="1">
          <mxGeometry x="255" y="341.1300000000001" width="160" height="60" as="geometry" />
        </mxCell>
        <mxCell id="h4NKM3wreXdGoletls02-72" value="" style="edgeStyle=orthogonalEdgeStyle;rounded=0;orthogonalLoop=1;jettySize=auto;html=1;" parent="h4NKM3wreXdGoletls02-113" source="h4NKM3wreXdGoletls02-48" target="h4NKM3wreXdGoletls02-71" edge="1">
          <mxGeometry relative="1" as="geometry">
            <Array as="points">
              <mxPoint x="220" y="260" />
              <mxPoint x="220" y="380" />
            </Array>
          </mxGeometry>
        </mxCell>
        <mxCell id="h4NKM3wreXdGoletls02-89" value="Successful{&lt;br style=&quot;border-color: var(--border-color);&quot;&gt;message: &quot;order has been deleted&quot;&lt;br style=&quot;border-color: var(--border-color);&quot;&gt;}&lt;br style=&quot;border-color: var(--border-color);&quot;&gt;Failed{&lt;br style=&quot;border-color: var(--border-color);&quot;&gt;message: error&lt;br style=&quot;border-color: var(--border-color);&quot;&gt;}" style="whiteSpace=wrap;html=1;rounded=1;" parent="h4NKM3wreXdGoletls02-113" vertex="1">
          <mxGeometry x="500" y="349.9981818181818" width="210" height="102.27272727272727" as="geometry" />
        </mxCell>
        <mxCell id="h4NKM3wreXdGoletls02-90" value="" style="edgeStyle=orthogonalEdgeStyle;rounded=0;orthogonalLoop=1;jettySize=auto;html=1;" parent="h4NKM3wreXdGoletls02-113" source="h4NKM3wreXdGoletls02-71" target="h4NKM3wreXdGoletls02-89" edge="1">
          <mxGeometry relative="1" as="geometry" />
        </mxCell>
        <mxCell id="h4NKM3wreXdGoletls02-91" value="UpdOrder{&lt;br&gt;Order order&lt;br&gt;}" style="whiteSpace=wrap;html=1;rounded=1;" parent="h4NKM3wreXdGoletls02-113" vertex="1">
          <mxGeometry x="265" y="230" width="120" height="60" as="geometry" />
        </mxCell>
        <mxCell id="h4NKM3wreXdGoletls02-92" value="" style="edgeStyle=orthogonalEdgeStyle;rounded=0;orthogonalLoop=1;jettySize=auto;html=1;" parent="h4NKM3wreXdGoletls02-113" source="h4NKM3wreXdGoletls02-48" target="h4NKM3wreXdGoletls02-91" edge="1">
          <mxGeometry relative="1" as="geometry" />
        </mxCell>
        <mxCell id="h4NKM3wreXdGoletls02-109" value="Successful{&lt;br&gt;message: &quot;order has been changed&quot;&lt;br&gt;}&lt;br&gt;Failed{&lt;br&gt;message: error&lt;br&gt;}" style="whiteSpace=wrap;html=1;rounded=1;" parent="h4NKM3wreXdGoletls02-113" vertex="1">
          <mxGeometry x="490" y="210.00181818181818" width="200" height="112.49999999999999" as="geometry" />
        </mxCell>
        <mxCell id="h4NKM3wreXdGoletls02-110" value="" style="edgeStyle=orthogonalEdgeStyle;rounded=0;orthogonalLoop=1;jettySize=auto;html=1;" parent="h4NKM3wreXdGoletls02-113" source="h4NKM3wreXdGoletls02-91" target="h4NKM3wreXdGoletls02-109" edge="1">
          <mxGeometry relative="1" as="geometry" />
        </mxCell>
        <mxCell id="h4NKM3wreXdGoletls02-112" value="Orders" style="text;html=1;align=center;verticalAlign=middle;whiteSpace=wrap;rounded=0;" parent="h4NKM3wreXdGoletls02-113" vertex="1">
          <mxGeometry x="350" y="20" width="60" height="30" as="geometry" />
        </mxCell>
        <mxCell id="SxQsT7nuJmALRDum_oz--150" value="" style="shape=stencil(fZbdcgIhDIWfZm8zQAg/17Z9j85U606tdqz9e/tmZ0c0uJ47xP0I5JwEBl59bp8/1kNwn6fj4W39M76ctgM/DCGM++36OJ50NPDjwKvN4bh+PR6+9i/z74/n6ctp9H74nlb4nbmSKZeJCu5vngmZ6jzzNAO7cX8FVKEsBuBKrgKg9oAE8gkCbLeUhEoEQKSUDZDLeWYRKIl8MEDRmHwfyBrBG6Amyu4+kDxxMoB3jhwgYu7TVAsVkFcWCs4CTBEoF4RctKeOxHIf8IXYpikHikAIf+MNUW94AGSSaoAoFIE3AlOyeWU+p2E5S9yfQZcQILVuQOwZdJNoS9Ls3wA5u2XZTIHECqeJ9kDpSaauRiNVcAY1QhdBzeLBli5WazpkSsBLV25uRaqWRyFawTQzRRIQYirJzq5atkBqLfouwqUxLBepthWb10vrWZY6UOAeyKCCtDV625mm9gmUC4Wc3VLJMMIE1BsA2FW9JraVlQB7n3c9oMKhCLEvIM1zBPZ25/umNQ1tVEC2G+fFCC8g398O2hNQuQlVu752DBfA+q0ptnqO5JFmeuIuo9DY7KjY71UxdJV4EntifPWorW++R/dC4t7V3DlIB5cHx2bc7eb3yvX//QNFp+bHDT/+Aw==);lineShape=1;strokeColor=default;" parent="1" vertex="1">
          <mxGeometry x="1497.6699326237667" y="666.6882429993252" width="11.681349430288606" height="11.663090540894245" as="geometry" />
        </mxCell>
        <mxCell id="nTX9dy1zklvWDv5KVKyq-1" value="cars" style="shape=table;startSize=30;container=1;collapsible=1;childLayout=tableLayout;fixedRows=1;rowLines=0;fontStyle=1;align=center;resizeLast=1;" vertex="1" parent="1">
          <mxGeometry x="620" y="1910" width="220" height="240" as="geometry" />
        </mxCell>
        <mxCell id="nTX9dy1zklvWDv5KVKyq-2" value="" style="shape=tableRow;horizontal=0;startSize=0;swimlaneHead=0;swimlaneBody=0;fillColor=none;collapsible=0;dropTarget=0;points=[[0,0.5],[1,0.5]];portConstraint=eastwest;strokeColor=inherit;top=0;left=0;right=0;bottom=1;" vertex="1" parent="nTX9dy1zklvWDv5KVKyq-1">
          <mxGeometry y="30" width="220" height="30" as="geometry" />
        </mxCell>
        <mxCell id="nTX9dy1zklvWDv5KVKyq-3" value="PK" style="shape=partialRectangle;overflow=hidden;connectable=0;fillColor=none;strokeColor=inherit;top=0;left=0;bottom=0;right=0;fontStyle=1;" vertex="1" parent="nTX9dy1zklvWDv5KVKyq-2">
          <mxGeometry width="30" height="30" as="geometry">
            <mxRectangle width="30" height="30" as="alternateBounds" />
          </mxGeometry>
        </mxCell>
        <mxCell id="nTX9dy1zklvWDv5KVKyq-4" value="car_id SERIAL " style="shape=partialRectangle;overflow=hidden;connectable=0;fillColor=none;align=left;strokeColor=inherit;top=0;left=0;bottom=0;right=0;spacingLeft=6;fontStyle=5;" vertex="1" parent="nTX9dy1zklvWDv5KVKyq-2">
          <mxGeometry x="30" width="190" height="30" as="geometry">
            <mxRectangle width="190" height="30" as="alternateBounds" />
          </mxGeometry>
        </mxCell>
        <mxCell id="nTX9dy1zklvWDv5KVKyq-5" value="" style="shape=tableRow;horizontal=0;startSize=0;swimlaneHead=0;swimlaneBody=0;fillColor=none;collapsible=0;dropTarget=0;points=[[0,0.5],[1,0.5]];portConstraint=eastwest;strokeColor=inherit;top=0;left=0;right=0;bottom=0;" vertex="1" parent="nTX9dy1zklvWDv5KVKyq-1">
          <mxGeometry y="60" width="220" height="30" as="geometry" />
        </mxCell>
        <mxCell id="nTX9dy1zklvWDv5KVKyq-6" value="" style="shape=partialRectangle;overflow=hidden;connectable=0;fillColor=none;strokeColor=inherit;top=0;left=0;bottom=0;right=0;" vertex="1" parent="nTX9dy1zklvWDv5KVKyq-5">
          <mxGeometry width="30" height="30" as="geometry">
            <mxRectangle width="30" height="30" as="alternateBounds" />
          </mxGeometry>
        </mxCell>
        <mxCell id="nTX9dy1zklvWDv5KVKyq-7" value="car_category VARCHAR(255)" style="shape=partialRectangle;overflow=hidden;connectable=0;fillColor=none;align=left;strokeColor=inherit;top=0;left=0;bottom=0;right=0;spacingLeft=6;" vertex="1" parent="nTX9dy1zklvWDv5KVKyq-5">
          <mxGeometry x="30" width="190" height="30" as="geometry">
            <mxRectangle width="190" height="30" as="alternateBounds" />
          </mxGeometry>
        </mxCell>
        <mxCell id="nTX9dy1zklvWDv5KVKyq-8" value="" style="shape=tableRow;horizontal=0;startSize=0;swimlaneHead=0;swimlaneBody=0;fillColor=none;collapsible=0;dropTarget=0;points=[[0,0.5],[1,0.5]];portConstraint=eastwest;strokeColor=inherit;top=0;left=0;right=0;bottom=0;" vertex="1" parent="nTX9dy1zklvWDv5KVKyq-1">
          <mxGeometry y="90" width="220" height="30" as="geometry" />
        </mxCell>
        <mxCell id="nTX9dy1zklvWDv5KVKyq-9" value="" style="shape=partialRectangle;overflow=hidden;connectable=0;fillColor=none;strokeColor=inherit;top=0;left=0;bottom=0;right=0;" vertex="1" parent="nTX9dy1zklvWDv5KVKyq-8">
          <mxGeometry width="30" height="30" as="geometry">
            <mxRectangle width="30" height="30" as="alternateBounds" />
          </mxGeometry>
        </mxCell>
        <mxCell id="nTX9dy1zklvWDv5KVKyq-10" value="car_name VARCHAR(255)" style="shape=partialRectangle;overflow=hidden;connectable=0;fillColor=none;align=left;strokeColor=inherit;top=0;left=0;bottom=0;right=0;spacingLeft=6;" vertex="1" parent="nTX9dy1zklvWDv5KVKyq-8">
          <mxGeometry x="30" width="190" height="30" as="geometry">
            <mxRectangle width="190" height="30" as="alternateBounds" />
          </mxGeometry>
        </mxCell>
        <mxCell id="nTX9dy1zklvWDv5KVKyq-11" value="" style="shape=tableRow;horizontal=0;startSize=0;swimlaneHead=0;swimlaneBody=0;fillColor=none;collapsible=0;dropTarget=0;points=[[0,0.5],[1,0.5]];portConstraint=eastwest;strokeColor=inherit;top=0;left=0;right=0;bottom=0;" vertex="1" parent="nTX9dy1zklvWDv5KVKyq-1">
          <mxGeometry y="120" width="220" height="30" as="geometry" />
        </mxCell>
        <mxCell id="nTX9dy1zklvWDv5KVKyq-12" value="" style="shape=partialRectangle;overflow=hidden;connectable=0;fillColor=none;strokeColor=inherit;top=0;left=0;bottom=0;right=0;" vertex="1" parent="nTX9dy1zklvWDv5KVKyq-11">
          <mxGeometry width="30" height="30" as="geometry">
            <mxRectangle width="30" height="30" as="alternateBounds" />
          </mxGeometry>
        </mxCell>
        <mxCell id="nTX9dy1zklvWDv5KVKyq-13" value="car_seats INT" style="shape=partialRectangle;overflow=hidden;connectable=0;fillColor=none;align=left;strokeColor=inherit;top=0;left=0;bottom=0;right=0;spacingLeft=6;" vertex="1" parent="nTX9dy1zklvWDv5KVKyq-11">
          <mxGeometry x="30" width="190" height="30" as="geometry">
            <mxRectangle width="190" height="30" as="alternateBounds" />
          </mxGeometry>
        </mxCell>
        <mxCell id="nTX9dy1zklvWDv5KVKyq-14" value="" style="shape=tableRow;horizontal=0;startSize=0;swimlaneHead=0;swimlaneBody=0;fillColor=none;collapsible=0;dropTarget=0;points=[[0,0.5],[1,0.5]];portConstraint=eastwest;strokeColor=inherit;top=0;left=0;right=0;bottom=0;" vertex="1" parent="nTX9dy1zklvWDv5KVKyq-1">
          <mxGeometry y="150" width="220" height="30" as="geometry" />
        </mxCell>
        <mxCell id="nTX9dy1zklvWDv5KVKyq-15" value="" style="shape=partialRectangle;overflow=hidden;connectable=0;fillColor=none;strokeColor=inherit;top=0;left=0;bottom=0;right=0;" vertex="1" parent="nTX9dy1zklvWDv5KVKyq-14">
          <mxGeometry width="30" height="30" as="geometry">
            <mxRectangle width="30" height="30" as="alternateBounds" />
          </mxGeometry>
        </mxCell>
        <mxCell id="nTX9dy1zklvWDv5KVKyq-16" value="car_image VARCHAR(255)" style="shape=partialRectangle;overflow=hidden;connectable=0;fillColor=none;align=left;strokeColor=inherit;top=0;left=0;bottom=0;right=0;spacingLeft=6;" vertex="1" parent="nTX9dy1zklvWDv5KVKyq-14">
          <mxGeometry x="30" width="190" height="30" as="geometry">
            <mxRectangle width="190" height="30" as="alternateBounds" />
          </mxGeometry>
        </mxCell>
        <mxCell id="nTX9dy1zklvWDv5KVKyq-17" value="" style="shape=tableRow;horizontal=0;startSize=0;swimlaneHead=0;swimlaneBody=0;fillColor=none;collapsible=0;dropTarget=0;points=[[0,0.5],[1,0.5]];portConstraint=eastwest;strokeColor=inherit;top=0;left=0;right=0;bottom=0;" vertex="1" parent="nTX9dy1zklvWDv5KVKyq-1">
          <mxGeometry y="180" width="220" height="30" as="geometry" />
        </mxCell>
        <mxCell id="nTX9dy1zklvWDv5KVKyq-18" value="" style="shape=partialRectangle;overflow=hidden;connectable=0;fillColor=none;strokeColor=inherit;top=0;left=0;bottom=0;right=0;" vertex="1" parent="nTX9dy1zklvWDv5KVKyq-17">
          <mxGeometry width="30" height="30" as="geometry">
            <mxRectangle width="30" height="30" as="alternateBounds" />
          </mxGeometry>
        </mxCell>
        <mxCell id="nTX9dy1zklvWDv5KVKyq-19" value="car_price INT" style="shape=partialRectangle;overflow=hidden;connectable=0;fillColor=none;align=left;strokeColor=inherit;top=0;left=0;bottom=0;right=0;spacingLeft=6;" vertex="1" parent="nTX9dy1zklvWDv5KVKyq-17">
          <mxGeometry x="30" width="190" height="30" as="geometry">
            <mxRectangle width="190" height="30" as="alternateBounds" />
          </mxGeometry>
        </mxCell>
        <mxCell id="nTX9dy1zklvWDv5KVKyq-20" value="" style="shape=tableRow;horizontal=0;startSize=0;swimlaneHead=0;swimlaneBody=0;fillColor=none;collapsible=0;dropTarget=0;points=[[0,0.5],[1,0.5]];portConstraint=eastwest;strokeColor=inherit;top=0;left=0;right=0;bottom=0;" vertex="1" parent="nTX9dy1zklvWDv5KVKyq-1">
          <mxGeometry y="210" width="220" height="30" as="geometry" />
        </mxCell>
        <mxCell id="nTX9dy1zklvWDv5KVKyq-21" value="" style="shape=partialRectangle;overflow=hidden;connectable=0;fillColor=none;strokeColor=inherit;top=0;left=0;bottom=0;right=0;" vertex="1" parent="nTX9dy1zklvWDv5KVKyq-20">
          <mxGeometry width="30" height="30" as="geometry">
            <mxRectangle width="30" height="30" as="alternateBounds" />
          </mxGeometry>
        </mxCell>
        <mxCell id="nTX9dy1zklvWDv5KVKyq-22" value="is_available BOOLEAN" style="shape=partialRectangle;overflow=hidden;connectable=0;fillColor=none;align=left;strokeColor=inherit;top=0;left=0;bottom=0;right=0;spacingLeft=6;" vertex="1" parent="nTX9dy1zklvWDv5KVKyq-20">
          <mxGeometry x="30" width="190" height="30" as="geometry">
            <mxRectangle width="190" height="30" as="alternateBounds" />
          </mxGeometry>
        </mxCell>
        <mxCell id="nTX9dy1zklvWDv5KVKyq-23" value="users" style="shape=table;startSize=30;container=1;collapsible=1;childLayout=tableLayout;fixedRows=1;rowLines=0;fontStyle=1;align=center;resizeLast=1;" vertex="1" parent="1">
          <mxGeometry x="230" y="2230" width="210" height="180" as="geometry" />
        </mxCell>
        <mxCell id="nTX9dy1zklvWDv5KVKyq-24" value="" style="shape=tableRow;horizontal=0;startSize=0;swimlaneHead=0;swimlaneBody=0;fillColor=none;collapsible=0;dropTarget=0;points=[[0,0.5],[1,0.5]];portConstraint=eastwest;strokeColor=inherit;top=0;left=0;right=0;bottom=1;" vertex="1" parent="nTX9dy1zklvWDv5KVKyq-23">
          <mxGeometry y="30" width="210" height="30" as="geometry" />
        </mxCell>
        <mxCell id="nTX9dy1zklvWDv5KVKyq-25" value="PK" style="shape=partialRectangle;overflow=hidden;connectable=0;fillColor=none;strokeColor=inherit;top=0;left=0;bottom=0;right=0;fontStyle=1;" vertex="1" parent="nTX9dy1zklvWDv5KVKyq-24">
          <mxGeometry width="30" height="30" as="geometry">
            <mxRectangle width="30" height="30" as="alternateBounds" />
          </mxGeometry>
        </mxCell>
        <mxCell id="nTX9dy1zklvWDv5KVKyq-26" value="user_id SERIAL " style="shape=partialRectangle;overflow=hidden;connectable=0;fillColor=none;align=left;strokeColor=inherit;top=0;left=0;bottom=0;right=0;spacingLeft=6;fontStyle=5;" vertex="1" parent="nTX9dy1zklvWDv5KVKyq-24">
          <mxGeometry x="30" width="180" height="30" as="geometry">
            <mxRectangle width="180" height="30" as="alternateBounds" />
          </mxGeometry>
        </mxCell>
        <mxCell id="nTX9dy1zklvWDv5KVKyq-27" value="" style="shape=tableRow;horizontal=0;startSize=0;swimlaneHead=0;swimlaneBody=0;fillColor=none;collapsible=0;dropTarget=0;points=[[0,0.5],[1,0.5]];portConstraint=eastwest;strokeColor=inherit;top=0;left=0;right=0;bottom=0;" vertex="1" parent="nTX9dy1zklvWDv5KVKyq-23">
          <mxGeometry y="60" width="210" height="30" as="geometry" />
        </mxCell>
        <mxCell id="nTX9dy1zklvWDv5KVKyq-28" value="" style="shape=partialRectangle;overflow=hidden;connectable=0;fillColor=none;strokeColor=inherit;top=0;left=0;bottom=0;right=0;" vertex="1" parent="nTX9dy1zklvWDv5KVKyq-27">
          <mxGeometry width="30" height="30" as="geometry">
            <mxRectangle width="30" height="30" as="alternateBounds" />
          </mxGeometry>
        </mxCell>
        <mxCell id="nTX9dy1zklvWDv5KVKyq-29" value="user_name VARCHAR(255)" style="shape=partialRectangle;overflow=hidden;connectable=0;fillColor=none;align=left;strokeColor=inherit;top=0;left=0;bottom=0;right=0;spacingLeft=6;" vertex="1" parent="nTX9dy1zklvWDv5KVKyq-27">
          <mxGeometry x="30" width="180" height="30" as="geometry">
            <mxRectangle width="180" height="30" as="alternateBounds" />
          </mxGeometry>
        </mxCell>
        <mxCell id="nTX9dy1zklvWDv5KVKyq-30" value="" style="shape=tableRow;horizontal=0;startSize=0;swimlaneHead=0;swimlaneBody=0;fillColor=none;collapsible=0;dropTarget=0;points=[[0,0.5],[1,0.5]];portConstraint=eastwest;strokeColor=inherit;top=0;left=0;right=0;bottom=0;" vertex="1" parent="nTX9dy1zklvWDv5KVKyq-23">
          <mxGeometry y="90" width="210" height="30" as="geometry" />
        </mxCell>
        <mxCell id="nTX9dy1zklvWDv5KVKyq-31" value="" style="shape=partialRectangle;overflow=hidden;connectable=0;fillColor=none;strokeColor=inherit;top=0;left=0;bottom=0;right=0;" vertex="1" parent="nTX9dy1zklvWDv5KVKyq-30">
          <mxGeometry width="30" height="30" as="geometry">
            <mxRectangle width="30" height="30" as="alternateBounds" />
          </mxGeometry>
        </mxCell>
        <mxCell id="nTX9dy1zklvWDv5KVKyq-32" value="user_login VARCHAR(255)" style="shape=partialRectangle;overflow=hidden;connectable=0;fillColor=none;align=left;strokeColor=inherit;top=0;left=0;bottom=0;right=0;spacingLeft=6;" vertex="1" parent="nTX9dy1zklvWDv5KVKyq-30">
          <mxGeometry x="30" width="180" height="30" as="geometry">
            <mxRectangle width="180" height="30" as="alternateBounds" />
          </mxGeometry>
        </mxCell>
        <mxCell id="nTX9dy1zklvWDv5KVKyq-33" value="" style="shape=tableRow;horizontal=0;startSize=0;swimlaneHead=0;swimlaneBody=0;fillColor=none;collapsible=0;dropTarget=0;points=[[0,0.5],[1,0.5]];portConstraint=eastwest;strokeColor=inherit;top=0;left=0;right=0;bottom=0;" vertex="1" parent="nTX9dy1zklvWDv5KVKyq-23">
          <mxGeometry y="120" width="210" height="30" as="geometry" />
        </mxCell>
        <mxCell id="nTX9dy1zklvWDv5KVKyq-34" value="" style="shape=partialRectangle;overflow=hidden;connectable=0;fillColor=none;strokeColor=inherit;top=0;left=0;bottom=0;right=0;" vertex="1" parent="nTX9dy1zklvWDv5KVKyq-33">
          <mxGeometry width="30" height="30" as="geometry">
            <mxRectangle width="30" height="30" as="alternateBounds" />
          </mxGeometry>
        </mxCell>
        <mxCell id="nTX9dy1zklvWDv5KVKyq-35" value="user_pass VARCHAR(255)" style="shape=partialRectangle;overflow=hidden;connectable=0;fillColor=none;align=left;strokeColor=inherit;top=0;left=0;bottom=0;right=0;spacingLeft=6;" vertex="1" parent="nTX9dy1zklvWDv5KVKyq-33">
          <mxGeometry x="30" width="180" height="30" as="geometry">
            <mxRectangle width="180" height="30" as="alternateBounds" />
          </mxGeometry>
        </mxCell>
        <mxCell id="nTX9dy1zklvWDv5KVKyq-36" value="" style="shape=tableRow;horizontal=0;startSize=0;swimlaneHead=0;swimlaneBody=0;fillColor=none;collapsible=0;dropTarget=0;points=[[0,0.5],[1,0.5]];portConstraint=eastwest;strokeColor=inherit;top=0;left=0;right=0;bottom=0;" vertex="1" parent="nTX9dy1zklvWDv5KVKyq-23">
          <mxGeometry y="150" width="210" height="30" as="geometry" />
        </mxCell>
        <mxCell id="nTX9dy1zklvWDv5KVKyq-37" value="" style="shape=partialRectangle;overflow=hidden;connectable=0;fillColor=none;strokeColor=inherit;top=0;left=0;bottom=0;right=0;" vertex="1" parent="nTX9dy1zklvWDv5KVKyq-36">
          <mxGeometry width="30" height="30" as="geometry">
            <mxRectangle width="30" height="30" as="alternateBounds" />
          </mxGeometry>
        </mxCell>
        <mxCell id="nTX9dy1zklvWDv5KVKyq-38" value="user_status VARCHAR(255)" style="shape=partialRectangle;overflow=hidden;connectable=0;fillColor=none;align=left;strokeColor=inherit;top=0;left=0;bottom=0;right=0;spacingLeft=6;" vertex="1" parent="nTX9dy1zklvWDv5KVKyq-36">
          <mxGeometry x="30" width="180" height="30" as="geometry">
            <mxRectangle width="180" height="30" as="alternateBounds" />
          </mxGeometry>
        </mxCell>
        <mxCell id="nTX9dy1zklvWDv5KVKyq-39" value="orders" style="shape=table;startSize=30;container=1;collapsible=1;childLayout=tableLayout;fixedRows=1;rowLines=0;fontStyle=1;align=center;resizeLast=1;" vertex="1" parent="1">
          <mxGeometry x="560" y="2230" width="320" height="180" as="geometry" />
        </mxCell>
        <mxCell id="nTX9dy1zklvWDv5KVKyq-40" value="" style="shape=tableRow;horizontal=0;startSize=0;swimlaneHead=0;swimlaneBody=0;fillColor=none;collapsible=0;dropTarget=0;points=[[0,0.5],[1,0.5]];portConstraint=eastwest;strokeColor=inherit;top=0;left=0;right=0;bottom=1;" vertex="1" parent="nTX9dy1zklvWDv5KVKyq-39">
          <mxGeometry y="30" width="320" height="30" as="geometry" />
        </mxCell>
        <mxCell id="nTX9dy1zklvWDv5KVKyq-41" value="PK" style="shape=partialRectangle;overflow=hidden;connectable=0;fillColor=none;strokeColor=inherit;top=0;left=0;bottom=0;right=0;fontStyle=1;" vertex="1" parent="nTX9dy1zklvWDv5KVKyq-40">
          <mxGeometry width="30" height="30" as="geometry">
            <mxRectangle width="30" height="30" as="alternateBounds" />
          </mxGeometry>
        </mxCell>
        <mxCell id="nTX9dy1zklvWDv5KVKyq-42" value="order_id SERIAL " style="shape=partialRectangle;overflow=hidden;connectable=0;fillColor=none;align=left;strokeColor=inherit;top=0;left=0;bottom=0;right=0;spacingLeft=6;fontStyle=5;" vertex="1" parent="nTX9dy1zklvWDv5KVKyq-40">
          <mxGeometry x="30" width="290" height="30" as="geometry">
            <mxRectangle width="290" height="30" as="alternateBounds" />
          </mxGeometry>
        </mxCell>
        <mxCell id="nTX9dy1zklvWDv5KVKyq-43" value="" style="shape=tableRow;horizontal=0;startSize=0;swimlaneHead=0;swimlaneBody=0;fillColor=none;collapsible=0;dropTarget=0;points=[[0,0.5],[1,0.5]];portConstraint=eastwest;strokeColor=inherit;top=0;left=0;right=0;bottom=0;" vertex="1" parent="nTX9dy1zklvWDv5KVKyq-39">
          <mxGeometry y="60" width="320" height="30" as="geometry" />
        </mxCell>
        <mxCell id="nTX9dy1zklvWDv5KVKyq-44" value="" style="shape=partialRectangle;overflow=hidden;connectable=0;fillColor=none;strokeColor=inherit;top=0;left=0;bottom=0;right=0;" vertex="1" parent="nTX9dy1zklvWDv5KVKyq-43">
          <mxGeometry width="30" height="30" as="geometry">
            <mxRectangle width="30" height="30" as="alternateBounds" />
          </mxGeometry>
        </mxCell>
        <mxCell id="nTX9dy1zklvWDv5KVKyq-45" value="orders_user_id INT REFERENCES users(user_id)" style="shape=partialRectangle;overflow=hidden;connectable=0;fillColor=none;align=left;strokeColor=inherit;top=0;left=0;bottom=0;right=0;spacingLeft=6;" vertex="1" parent="nTX9dy1zklvWDv5KVKyq-43">
          <mxGeometry x="30" width="290" height="30" as="geometry">
            <mxRectangle width="290" height="30" as="alternateBounds" />
          </mxGeometry>
        </mxCell>
        <mxCell id="nTX9dy1zklvWDv5KVKyq-46" value="" style="shape=tableRow;horizontal=0;startSize=0;swimlaneHead=0;swimlaneBody=0;fillColor=none;collapsible=0;dropTarget=0;points=[[0,0.5],[1,0.5]];portConstraint=eastwest;strokeColor=inherit;top=0;left=0;right=0;bottom=0;" vertex="1" parent="nTX9dy1zklvWDv5KVKyq-39">
          <mxGeometry y="90" width="320" height="30" as="geometry" />
        </mxCell>
        <mxCell id="nTX9dy1zklvWDv5KVKyq-47" value="" style="shape=partialRectangle;overflow=hidden;connectable=0;fillColor=none;strokeColor=inherit;top=0;left=0;bottom=0;right=0;" vertex="1" parent="nTX9dy1zklvWDv5KVKyq-46">
          <mxGeometry width="30" height="30" as="geometry">
            <mxRectangle width="30" height="30" as="alternateBounds" />
          </mxGeometry>
        </mxCell>
        <mxCell id="nTX9dy1zklvWDv5KVKyq-48" value="orders_car_id INT REFERENCES cars(car_id)" style="shape=partialRectangle;overflow=hidden;connectable=0;fillColor=none;align=left;strokeColor=inherit;top=0;left=0;bottom=0;right=0;spacingLeft=6;" vertex="1" parent="nTX9dy1zklvWDv5KVKyq-46">
          <mxGeometry x="30" width="290" height="30" as="geometry">
            <mxRectangle width="290" height="30" as="alternateBounds" />
          </mxGeometry>
        </mxCell>
        <mxCell id="nTX9dy1zklvWDv5KVKyq-49" value="" style="shape=tableRow;horizontal=0;startSize=0;swimlaneHead=0;swimlaneBody=0;fillColor=none;collapsible=0;dropTarget=0;points=[[0,0.5],[1,0.5]];portConstraint=eastwest;strokeColor=inherit;top=0;left=0;right=0;bottom=0;" vertex="1" parent="nTX9dy1zklvWDv5KVKyq-39">
          <mxGeometry y="120" width="320" height="30" as="geometry" />
        </mxCell>
        <mxCell id="nTX9dy1zklvWDv5KVKyq-50" value="" style="shape=partialRectangle;overflow=hidden;connectable=0;fillColor=none;strokeColor=inherit;top=0;left=0;bottom=0;right=0;" vertex="1" parent="nTX9dy1zklvWDv5KVKyq-49">
          <mxGeometry width="30" height="30" as="geometry">
            <mxRectangle width="30" height="30" as="alternateBounds" />
          </mxGeometry>
        </mxCell>
        <mxCell id="nTX9dy1zklvWDv5KVKyq-51" value="orders_start_date DATE" style="shape=partialRectangle;overflow=hidden;connectable=0;fillColor=none;align=left;strokeColor=inherit;top=0;left=0;bottom=0;right=0;spacingLeft=6;" vertex="1" parent="nTX9dy1zklvWDv5KVKyq-49">
          <mxGeometry x="30" width="290" height="30" as="geometry">
            <mxRectangle width="290" height="30" as="alternateBounds" />
          </mxGeometry>
        </mxCell>
        <mxCell id="nTX9dy1zklvWDv5KVKyq-52" value="" style="shape=tableRow;horizontal=0;startSize=0;swimlaneHead=0;swimlaneBody=0;fillColor=none;collapsible=0;dropTarget=0;points=[[0,0.5],[1,0.5]];portConstraint=eastwest;strokeColor=inherit;top=0;left=0;right=0;bottom=0;" vertex="1" parent="nTX9dy1zklvWDv5KVKyq-39">
          <mxGeometry y="150" width="320" height="30" as="geometry" />
        </mxCell>
        <mxCell id="nTX9dy1zklvWDv5KVKyq-53" value="" style="shape=partialRectangle;overflow=hidden;connectable=0;fillColor=none;strokeColor=inherit;top=0;left=0;bottom=0;right=0;" vertex="1" parent="nTX9dy1zklvWDv5KVKyq-52">
          <mxGeometry width="30" height="30" as="geometry">
            <mxRectangle width="30" height="30" as="alternateBounds" />
          </mxGeometry>
        </mxCell>
        <mxCell id="nTX9dy1zklvWDv5KVKyq-54" value="orders_end_date DATE" style="shape=partialRectangle;overflow=hidden;connectable=0;fillColor=none;align=left;strokeColor=inherit;top=0;left=0;bottom=0;right=0;spacingLeft=6;" vertex="1" parent="nTX9dy1zklvWDv5KVKyq-52">
          <mxGeometry x="30" width="290" height="30" as="geometry">
            <mxRectangle width="290" height="30" as="alternateBounds" />
          </mxGeometry>
        </mxCell>
        <mxCell id="nTX9dy1zklvWDv5KVKyq-55" value="payments" style="shape=table;startSize=30;container=1;collapsible=1;childLayout=tableLayout;fixedRows=1;rowLines=0;fontStyle=1;align=center;resizeLast=1;" vertex="1" parent="1">
          <mxGeometry x="175" y="2490" width="320" height="210" as="geometry" />
        </mxCell>
        <mxCell id="nTX9dy1zklvWDv5KVKyq-56" value="" style="shape=tableRow;horizontal=0;startSize=0;swimlaneHead=0;swimlaneBody=0;fillColor=none;collapsible=0;dropTarget=0;points=[[0,0.5],[1,0.5]];portConstraint=eastwest;strokeColor=inherit;top=0;left=0;right=0;bottom=1;" vertex="1" parent="nTX9dy1zklvWDv5KVKyq-55">
          <mxGeometry y="30" width="320" height="30" as="geometry" />
        </mxCell>
        <mxCell id="nTX9dy1zklvWDv5KVKyq-57" value="PK" style="shape=partialRectangle;overflow=hidden;connectable=0;fillColor=none;strokeColor=inherit;top=0;left=0;bottom=0;right=0;fontStyle=1;" vertex="1" parent="nTX9dy1zklvWDv5KVKyq-56">
          <mxGeometry width="30" height="30" as="geometry">
            <mxRectangle width="30" height="30" as="alternateBounds" />
          </mxGeometry>
        </mxCell>
        <mxCell id="nTX9dy1zklvWDv5KVKyq-58" value="payment_id SERIAL " style="shape=partialRectangle;overflow=hidden;connectable=0;fillColor=none;align=left;strokeColor=inherit;top=0;left=0;bottom=0;right=0;spacingLeft=6;fontStyle=5;" vertex="1" parent="nTX9dy1zklvWDv5KVKyq-56">
          <mxGeometry x="30" width="290" height="30" as="geometry">
            <mxRectangle width="290" height="30" as="alternateBounds" />
          </mxGeometry>
        </mxCell>
        <mxCell id="nTX9dy1zklvWDv5KVKyq-59" value="" style="shape=tableRow;horizontal=0;startSize=0;swimlaneHead=0;swimlaneBody=0;fillColor=none;collapsible=0;dropTarget=0;points=[[0,0.5],[1,0.5]];portConstraint=eastwest;strokeColor=inherit;top=0;left=0;right=0;bottom=0;" vertex="1" parent="nTX9dy1zklvWDv5KVKyq-55">
          <mxGeometry y="60" width="320" height="30" as="geometry" />
        </mxCell>
        <mxCell id="nTX9dy1zklvWDv5KVKyq-60" value="" style="shape=partialRectangle;overflow=hidden;connectable=0;fillColor=none;strokeColor=inherit;top=0;left=0;bottom=0;right=0;" vertex="1" parent="nTX9dy1zklvWDv5KVKyq-59">
          <mxGeometry width="30" height="30" as="geometry">
            <mxRectangle width="30" height="30" as="alternateBounds" />
          </mxGeometry>
        </mxCell>
        <mxCell id="nTX9dy1zklvWDv5KVKyq-61" value="payment_number VARCHAR(255)" style="shape=partialRectangle;overflow=hidden;connectable=0;fillColor=none;align=left;strokeColor=inherit;top=0;left=0;bottom=0;right=0;spacingLeft=6;" vertex="1" parent="nTX9dy1zklvWDv5KVKyq-59">
          <mxGeometry x="30" width="290" height="30" as="geometry">
            <mxRectangle width="290" height="30" as="alternateBounds" />
          </mxGeometry>
        </mxCell>
        <mxCell id="nTX9dy1zklvWDv5KVKyq-62" value="" style="shape=tableRow;horizontal=0;startSize=0;swimlaneHead=0;swimlaneBody=0;fillColor=none;collapsible=0;dropTarget=0;points=[[0,0.5],[1,0.5]];portConstraint=eastwest;strokeColor=inherit;top=0;left=0;right=0;bottom=0;" vertex="1" parent="nTX9dy1zklvWDv5KVKyq-55">
          <mxGeometry y="90" width="320" height="30" as="geometry" />
        </mxCell>
        <mxCell id="nTX9dy1zklvWDv5KVKyq-63" value="" style="shape=partialRectangle;overflow=hidden;connectable=0;fillColor=none;strokeColor=inherit;top=0;left=0;bottom=0;right=0;" vertex="1" parent="nTX9dy1zklvWDv5KVKyq-62">
          <mxGeometry width="30" height="30" as="geometry">
            <mxRectangle width="30" height="30" as="alternateBounds" />
          </mxGeometry>
        </mxCell>
        <mxCell id="nTX9dy1zklvWDv5KVKyq-64" value="payment_cvv VARCHAR(255)" style="shape=partialRectangle;overflow=hidden;connectable=0;fillColor=none;align=left;strokeColor=inherit;top=0;left=0;bottom=0;right=0;spacingLeft=6;" vertex="1" parent="nTX9dy1zklvWDv5KVKyq-62">
          <mxGeometry x="30" width="290" height="30" as="geometry">
            <mxRectangle width="290" height="30" as="alternateBounds" />
          </mxGeometry>
        </mxCell>
        <mxCell id="nTX9dy1zklvWDv5KVKyq-65" value="" style="shape=tableRow;horizontal=0;startSize=0;swimlaneHead=0;swimlaneBody=0;fillColor=none;collapsible=0;dropTarget=0;points=[[0,0.5],[1,0.5]];portConstraint=eastwest;strokeColor=inherit;top=0;left=0;right=0;bottom=0;" vertex="1" parent="nTX9dy1zklvWDv5KVKyq-55">
          <mxGeometry y="120" width="320" height="30" as="geometry" />
        </mxCell>
        <mxCell id="nTX9dy1zklvWDv5KVKyq-66" value="" style="shape=partialRectangle;overflow=hidden;connectable=0;fillColor=none;strokeColor=inherit;top=0;left=0;bottom=0;right=0;" vertex="1" parent="nTX9dy1zklvWDv5KVKyq-65">
          <mxGeometry width="30" height="30" as="geometry">
            <mxRectangle width="30" height="30" as="alternateBounds" />
          </mxGeometry>
        </mxCell>
        <mxCell id="nTX9dy1zklvWDv5KVKyq-67" value="payment_name VARCHAR(255)" style="shape=partialRectangle;overflow=hidden;connectable=0;fillColor=none;align=left;strokeColor=inherit;top=0;left=0;bottom=0;right=0;spacingLeft=6;" vertex="1" parent="nTX9dy1zklvWDv5KVKyq-65">
          <mxGeometry x="30" width="290" height="30" as="geometry">
            <mxRectangle width="290" height="30" as="alternateBounds" />
          </mxGeometry>
        </mxCell>
        <mxCell id="nTX9dy1zklvWDv5KVKyq-68" value="" style="shape=tableRow;horizontal=0;startSize=0;swimlaneHead=0;swimlaneBody=0;fillColor=none;collapsible=0;dropTarget=0;points=[[0,0.5],[1,0.5]];portConstraint=eastwest;strokeColor=inherit;top=0;left=0;right=0;bottom=0;" vertex="1" parent="nTX9dy1zklvWDv5KVKyq-55">
          <mxGeometry y="150" width="320" height="30" as="geometry" />
        </mxCell>
        <mxCell id="nTX9dy1zklvWDv5KVKyq-69" value="" style="shape=partialRectangle;overflow=hidden;connectable=0;fillColor=none;strokeColor=inherit;top=0;left=0;bottom=0;right=0;" vertex="1" parent="nTX9dy1zklvWDv5KVKyq-68">
          <mxGeometry width="30" height="30" as="geometry">
            <mxRectangle width="30" height="30" as="alternateBounds" />
          </mxGeometry>
        </mxCell>
        <mxCell id="nTX9dy1zklvWDv5KVKyq-70" value="payment_date VARCHAR(255)" style="shape=partialRectangle;overflow=hidden;connectable=0;fillColor=none;align=left;strokeColor=inherit;top=0;left=0;bottom=0;right=0;spacingLeft=6;" vertex="1" parent="nTX9dy1zklvWDv5KVKyq-68">
          <mxGeometry x="30" width="290" height="30" as="geometry">
            <mxRectangle width="290" height="30" as="alternateBounds" />
          </mxGeometry>
        </mxCell>
        <mxCell id="nTX9dy1zklvWDv5KVKyq-71" value="" style="shape=tableRow;horizontal=0;startSize=0;swimlaneHead=0;swimlaneBody=0;fillColor=none;collapsible=0;dropTarget=0;points=[[0,0.5],[1,0.5]];portConstraint=eastwest;strokeColor=inherit;top=0;left=0;right=0;bottom=0;" vertex="1" parent="nTX9dy1zklvWDv5KVKyq-55">
          <mxGeometry y="180" width="320" height="30" as="geometry" />
        </mxCell>
        <mxCell id="nTX9dy1zklvWDv5KVKyq-72" value="" style="shape=partialRectangle;overflow=hidden;connectable=0;fillColor=none;strokeColor=inherit;top=0;left=0;bottom=0;right=0;" vertex="1" parent="nTX9dy1zklvWDv5KVKyq-71">
          <mxGeometry width="30" height="30" as="geometry">
            <mxRectangle width="30" height="30" as="alternateBounds" />
          </mxGeometry>
        </mxCell>
        <mxCell id="nTX9dy1zklvWDv5KVKyq-73" value="payment_user_id INT REFERENCES users(user_id)" style="shape=partialRectangle;overflow=hidden;connectable=0;fillColor=none;align=left;strokeColor=inherit;top=0;left=0;bottom=0;right=0;spacingLeft=6;" vertex="1" parent="nTX9dy1zklvWDv5KVKyq-71">
          <mxGeometry x="30" width="290" height="30" as="geometry">
            <mxRectangle width="290" height="30" as="alternateBounds" />
          </mxGeometry>
        </mxCell>
        <mxCell id="nTX9dy1zklvWDv5KVKyq-74" value="accidents" style="shape=table;startSize=30;container=1;collapsible=1;childLayout=tableLayout;fixedRows=1;rowLines=0;fontStyle=1;align=center;resizeLast=1;" vertex="1" parent="1">
          <mxGeometry x="210" y="1960" width="270" height="180" as="geometry" />
        </mxCell>
        <mxCell id="nTX9dy1zklvWDv5KVKyq-75" value="" style="shape=tableRow;horizontal=0;startSize=0;swimlaneHead=0;swimlaneBody=0;fillColor=none;collapsible=0;dropTarget=0;points=[[0,0.5],[1,0.5]];portConstraint=eastwest;strokeColor=inherit;top=0;left=0;right=0;bottom=1;" vertex="1" parent="nTX9dy1zklvWDv5KVKyq-74">
          <mxGeometry y="30" width="270" height="30" as="geometry" />
        </mxCell>
        <mxCell id="nTX9dy1zklvWDv5KVKyq-76" value="PK" style="shape=partialRectangle;overflow=hidden;connectable=0;fillColor=none;strokeColor=inherit;top=0;left=0;bottom=0;right=0;fontStyle=1;" vertex="1" parent="nTX9dy1zklvWDv5KVKyq-75">
          <mxGeometry width="30" height="30" as="geometry">
            <mxRectangle width="30" height="30" as="alternateBounds" />
          </mxGeometry>
        </mxCell>
        <mxCell id="nTX9dy1zklvWDv5KVKyq-77" value="car_id INT REFERENCES cars(car_id)" style="shape=partialRectangle;overflow=hidden;connectable=0;fillColor=none;align=left;strokeColor=inherit;top=0;left=0;bottom=0;right=0;spacingLeft=6;fontStyle=5;" vertex="1" parent="nTX9dy1zklvWDv5KVKyq-75">
          <mxGeometry x="30" width="240" height="30" as="geometry">
            <mxRectangle width="240" height="30" as="alternateBounds" />
          </mxGeometry>
        </mxCell>
        <mxCell id="nTX9dy1zklvWDv5KVKyq-78" value="" style="shape=tableRow;horizontal=0;startSize=0;swimlaneHead=0;swimlaneBody=0;fillColor=none;collapsible=0;dropTarget=0;points=[[0,0.5],[1,0.5]];portConstraint=eastwest;strokeColor=inherit;top=0;left=0;right=0;bottom=1;" vertex="1" parent="nTX9dy1zklvWDv5KVKyq-74">
          <mxGeometry y="60" width="270" height="30" as="geometry" />
        </mxCell>
        <mxCell id="nTX9dy1zklvWDv5KVKyq-79" value="PK" style="shape=partialRectangle;overflow=hidden;connectable=0;fillColor=none;strokeColor=inherit;top=0;left=0;bottom=0;right=0;fontStyle=1;" vertex="1" parent="nTX9dy1zklvWDv5KVKyq-78">
          <mxGeometry width="30" height="30" as="geometry">
            <mxRectangle width="30" height="30" as="alternateBounds" />
          </mxGeometry>
        </mxCell>
        <mxCell id="nTX9dy1zklvWDv5KVKyq-80" value="accident_id SERIAL " style="shape=partialRectangle;overflow=hidden;connectable=0;fillColor=none;align=left;strokeColor=inherit;top=0;left=0;bottom=0;right=0;spacingLeft=6;fontStyle=5;" vertex="1" parent="nTX9dy1zklvWDv5KVKyq-78">
          <mxGeometry x="30" width="240" height="30" as="geometry">
            <mxRectangle width="240" height="30" as="alternateBounds" />
          </mxGeometry>
        </mxCell>
        <mxCell id="nTX9dy1zklvWDv5KVKyq-81" value="" style="shape=tableRow;horizontal=0;startSize=0;swimlaneHead=0;swimlaneBody=0;fillColor=none;collapsible=0;dropTarget=0;points=[[0,0.5],[1,0.5]];portConstraint=eastwest;strokeColor=inherit;top=0;left=0;right=0;bottom=0;" vertex="1" parent="nTX9dy1zklvWDv5KVKyq-74">
          <mxGeometry y="90" width="270" height="30" as="geometry" />
        </mxCell>
        <mxCell id="nTX9dy1zklvWDv5KVKyq-82" value="" style="shape=partialRectangle;overflow=hidden;connectable=0;fillColor=none;strokeColor=inherit;top=0;left=0;bottom=0;right=0;" vertex="1" parent="nTX9dy1zklvWDv5KVKyq-81">
          <mxGeometry width="30" height="30" as="geometry">
            <mxRectangle width="30" height="30" as="alternateBounds" />
          </mxGeometry>
        </mxCell>
        <mxCell id="nTX9dy1zklvWDv5KVKyq-83" value="report_date DATE" style="shape=partialRectangle;overflow=hidden;connectable=0;fillColor=none;align=left;strokeColor=inherit;top=0;left=0;bottom=0;right=0;spacingLeft=6;" vertex="1" parent="nTX9dy1zklvWDv5KVKyq-81">
          <mxGeometry x="30" width="240" height="30" as="geometry">
            <mxRectangle width="240" height="30" as="alternateBounds" />
          </mxGeometry>
        </mxCell>
        <mxCell id="nTX9dy1zklvWDv5KVKyq-84" value="" style="shape=tableRow;horizontal=0;startSize=0;swimlaneHead=0;swimlaneBody=0;fillColor=none;collapsible=0;dropTarget=0;points=[[0,0.5],[1,0.5]];portConstraint=eastwest;strokeColor=inherit;top=0;left=0;right=0;bottom=0;" vertex="1" parent="nTX9dy1zklvWDv5KVKyq-74">
          <mxGeometry y="120" width="270" height="30" as="geometry" />
        </mxCell>
        <mxCell id="nTX9dy1zklvWDv5KVKyq-85" value="" style="shape=partialRectangle;overflow=hidden;connectable=0;fillColor=none;strokeColor=inherit;top=0;left=0;bottom=0;right=0;" vertex="1" parent="nTX9dy1zklvWDv5KVKyq-84">
          <mxGeometry width="30" height="30" as="geometry">
            <mxRectangle width="30" height="30" as="alternateBounds" />
          </mxGeometry>
        </mxCell>
        <mxCell id="nTX9dy1zklvWDv5KVKyq-86" value="description TEXT" style="shape=partialRectangle;overflow=hidden;connectable=0;fillColor=none;align=left;strokeColor=inherit;top=0;left=0;bottom=0;right=0;spacingLeft=6;" vertex="1" parent="nTX9dy1zklvWDv5KVKyq-84">
          <mxGeometry x="30" width="240" height="30" as="geometry">
            <mxRectangle width="240" height="30" as="alternateBounds" />
          </mxGeometry>
        </mxCell>
        <mxCell id="nTX9dy1zklvWDv5KVKyq-87" value="" style="shape=tableRow;horizontal=0;startSize=0;swimlaneHead=0;swimlaneBody=0;fillColor=none;collapsible=0;dropTarget=0;points=[[0,0.5],[1,0.5]];portConstraint=eastwest;strokeColor=inherit;top=0;left=0;right=0;bottom=0;" vertex="1" parent="nTX9dy1zklvWDv5KVKyq-74">
          <mxGeometry y="150" width="270" height="30" as="geometry" />
        </mxCell>
        <mxCell id="nTX9dy1zklvWDv5KVKyq-88" value="" style="shape=partialRectangle;overflow=hidden;connectable=0;fillColor=none;strokeColor=inherit;top=0;left=0;bottom=0;right=0;" vertex="1" parent="nTX9dy1zklvWDv5KVKyq-87">
          <mxGeometry width="30" height="30" as="geometry">
            <mxRectangle width="30" height="30" as="alternateBounds" />
          </mxGeometry>
        </mxCell>
        <mxCell id="nTX9dy1zklvWDv5KVKyq-89" value="damage_cost INT" style="shape=partialRectangle;overflow=hidden;connectable=0;fillColor=none;align=left;strokeColor=inherit;top=0;left=0;bottom=0;right=0;spacingLeft=6;" vertex="1" parent="nTX9dy1zklvWDv5KVKyq-87">
          <mxGeometry x="30" width="240" height="30" as="geometry">
            <mxRectangle width="240" height="30" as="alternateBounds" />
          </mxGeometry>
        </mxCell>
        <mxCell id="nTX9dy1zklvWDv5KVKyq-90" value="promotions" style="shape=table;startSize=30;container=1;collapsible=1;childLayout=tableLayout;fixedRows=1;rowLines=0;fontStyle=1;align=center;resizeLast=1;" vertex="1" parent="1">
          <mxGeometry x="1000" y="2230" width="240" height="180" as="geometry" />
        </mxCell>
        <mxCell id="nTX9dy1zklvWDv5KVKyq-91" value="" style="shape=tableRow;horizontal=0;startSize=0;swimlaneHead=0;swimlaneBody=0;fillColor=none;collapsible=0;dropTarget=0;points=[[0,0.5],[1,0.5]];portConstraint=eastwest;strokeColor=inherit;top=0;left=0;right=0;bottom=1;" vertex="1" parent="nTX9dy1zklvWDv5KVKyq-90">
          <mxGeometry y="30" width="240" height="30" as="geometry" />
        </mxCell>
        <mxCell id="nTX9dy1zklvWDv5KVKyq-92" value="PK" style="shape=partialRectangle;overflow=hidden;connectable=0;fillColor=none;strokeColor=inherit;top=0;left=0;bottom=0;right=0;fontStyle=1;" vertex="1" parent="nTX9dy1zklvWDv5KVKyq-91">
          <mxGeometry width="30" height="30" as="geometry">
            <mxRectangle width="30" height="30" as="alternateBounds" />
          </mxGeometry>
        </mxCell>
        <mxCell id="nTX9dy1zklvWDv5KVKyq-93" value="promotion_id SERIAL " style="shape=partialRectangle;overflow=hidden;connectable=0;fillColor=none;align=left;strokeColor=inherit;top=0;left=0;bottom=0;right=0;spacingLeft=6;fontStyle=5;" vertex="1" parent="nTX9dy1zklvWDv5KVKyq-91">
          <mxGeometry x="30" width="210" height="30" as="geometry">
            <mxRectangle width="210" height="30" as="alternateBounds" />
          </mxGeometry>
        </mxCell>
        <mxCell id="nTX9dy1zklvWDv5KVKyq-94" value="" style="shape=tableRow;horizontal=0;startSize=0;swimlaneHead=0;swimlaneBody=0;fillColor=none;collapsible=0;dropTarget=0;points=[[0,0.5],[1,0.5]];portConstraint=eastwest;strokeColor=inherit;top=0;left=0;right=0;bottom=0;" vertex="1" parent="nTX9dy1zklvWDv5KVKyq-90">
          <mxGeometry y="60" width="240" height="30" as="geometry" />
        </mxCell>
        <mxCell id="nTX9dy1zklvWDv5KVKyq-95" value="" style="shape=partialRectangle;overflow=hidden;connectable=0;fillColor=none;strokeColor=inherit;top=0;left=0;bottom=0;right=0;" vertex="1" parent="nTX9dy1zklvWDv5KVKyq-94">
          <mxGeometry width="30" height="30" as="geometry">
            <mxRectangle width="30" height="30" as="alternateBounds" />
          </mxGeometry>
        </mxCell>
        <mxCell id="nTX9dy1zklvWDv5KVKyq-96" value="promotion_name VARCHAR(255)" style="shape=partialRectangle;overflow=hidden;connectable=0;fillColor=none;align=left;strokeColor=inherit;top=0;left=0;bottom=0;right=0;spacingLeft=6;" vertex="1" parent="nTX9dy1zklvWDv5KVKyq-94">
          <mxGeometry x="30" width="210" height="30" as="geometry">
            <mxRectangle width="210" height="30" as="alternateBounds" />
          </mxGeometry>
        </mxCell>
        <mxCell id="nTX9dy1zklvWDv5KVKyq-97" value="" style="shape=tableRow;horizontal=0;startSize=0;swimlaneHead=0;swimlaneBody=0;fillColor=none;collapsible=0;dropTarget=0;points=[[0,0.5],[1,0.5]];portConstraint=eastwest;strokeColor=inherit;top=0;left=0;right=0;bottom=0;" vertex="1" parent="nTX9dy1zklvWDv5KVKyq-90">
          <mxGeometry y="90" width="240" height="30" as="geometry" />
        </mxCell>
        <mxCell id="nTX9dy1zklvWDv5KVKyq-98" value="" style="shape=partialRectangle;overflow=hidden;connectable=0;fillColor=none;strokeColor=inherit;top=0;left=0;bottom=0;right=0;" vertex="1" parent="nTX9dy1zklvWDv5KVKyq-97">
          <mxGeometry width="30" height="30" as="geometry">
            <mxRectangle width="30" height="30" as="alternateBounds" />
          </mxGeometry>
        </mxCell>
        <mxCell id="nTX9dy1zklvWDv5KVKyq-99" value="discount_percentage INT" style="shape=partialRectangle;overflow=hidden;connectable=0;fillColor=none;align=left;strokeColor=inherit;top=0;left=0;bottom=0;right=0;spacingLeft=6;" vertex="1" parent="nTX9dy1zklvWDv5KVKyq-97">
          <mxGeometry x="30" width="210" height="30" as="geometry">
            <mxRectangle width="210" height="30" as="alternateBounds" />
          </mxGeometry>
        </mxCell>
        <mxCell id="nTX9dy1zklvWDv5KVKyq-100" value="" style="shape=tableRow;horizontal=0;startSize=0;swimlaneHead=0;swimlaneBody=0;fillColor=none;collapsible=0;dropTarget=0;points=[[0,0.5],[1,0.5]];portConstraint=eastwest;strokeColor=inherit;top=0;left=0;right=0;bottom=0;" vertex="1" parent="nTX9dy1zklvWDv5KVKyq-90">
          <mxGeometry y="120" width="240" height="30" as="geometry" />
        </mxCell>
        <mxCell id="nTX9dy1zklvWDv5KVKyq-101" value="" style="shape=partialRectangle;overflow=hidden;connectable=0;fillColor=none;strokeColor=inherit;top=0;left=0;bottom=0;right=0;" vertex="1" parent="nTX9dy1zklvWDv5KVKyq-100">
          <mxGeometry width="30" height="30" as="geometry">
            <mxRectangle width="30" height="30" as="alternateBounds" />
          </mxGeometry>
        </mxCell>
        <mxCell id="nTX9dy1zklvWDv5KVKyq-102" value="start_date DATE" style="shape=partialRectangle;overflow=hidden;connectable=0;fillColor=none;align=left;strokeColor=inherit;top=0;left=0;bottom=0;right=0;spacingLeft=6;" vertex="1" parent="nTX9dy1zklvWDv5KVKyq-100">
          <mxGeometry x="30" width="210" height="30" as="geometry">
            <mxRectangle width="210" height="30" as="alternateBounds" />
          </mxGeometry>
        </mxCell>
        <mxCell id="nTX9dy1zklvWDv5KVKyq-103" value="" style="shape=tableRow;horizontal=0;startSize=0;swimlaneHead=0;swimlaneBody=0;fillColor=none;collapsible=0;dropTarget=0;points=[[0,0.5],[1,0.5]];portConstraint=eastwest;strokeColor=inherit;top=0;left=0;right=0;bottom=0;" vertex="1" parent="nTX9dy1zklvWDv5KVKyq-90">
          <mxGeometry y="150" width="240" height="30" as="geometry" />
        </mxCell>
        <mxCell id="nTX9dy1zklvWDv5KVKyq-104" value="" style="shape=partialRectangle;overflow=hidden;connectable=0;fillColor=none;strokeColor=inherit;top=0;left=0;bottom=0;right=0;" vertex="1" parent="nTX9dy1zklvWDv5KVKyq-103">
          <mxGeometry width="30" height="30" as="geometry">
            <mxRectangle width="30" height="30" as="alternateBounds" />
          </mxGeometry>
        </mxCell>
        <mxCell id="nTX9dy1zklvWDv5KVKyq-105" value="end_date DATE" style="shape=partialRectangle;overflow=hidden;connectable=0;fillColor=none;align=left;strokeColor=inherit;top=0;left=0;bottom=0;right=0;spacingLeft=6;" vertex="1" parent="nTX9dy1zklvWDv5KVKyq-103">
          <mxGeometry x="30" width="210" height="30" as="geometry">
            <mxRectangle width="210" height="30" as="alternateBounds" />
          </mxGeometry>
        </mxCell>
        <mxCell id="nTX9dy1zklvWDv5KVKyq-106" value="car_promotions" style="shape=table;startSize=30;container=1;collapsible=1;childLayout=tableLayout;fixedRows=1;rowLines=0;fontStyle=1;align=center;resizeLast=1;" vertex="1" parent="1">
          <mxGeometry x="950" y="1985" width="320" height="90" as="geometry" />
        </mxCell>
        <mxCell id="nTX9dy1zklvWDv5KVKyq-107" value="" style="shape=tableRow;horizontal=0;startSize=0;swimlaneHead=0;swimlaneBody=0;fillColor=none;collapsible=0;dropTarget=0;points=[[0,0.5],[1,0.5]];portConstraint=eastwest;strokeColor=inherit;top=0;left=0;right=0;bottom=1;" vertex="1" parent="nTX9dy1zklvWDv5KVKyq-106">
          <mxGeometry y="30" width="320" height="30" as="geometry" />
        </mxCell>
        <mxCell id="nTX9dy1zklvWDv5KVKyq-108" value="PK" style="shape=partialRectangle;overflow=hidden;connectable=0;fillColor=none;strokeColor=inherit;top=0;left=0;bottom=0;right=0;fontStyle=1;" vertex="1" parent="nTX9dy1zklvWDv5KVKyq-107">
          <mxGeometry width="30" height="30" as="geometry">
            <mxRectangle width="30" height="30" as="alternateBounds" />
          </mxGeometry>
        </mxCell>
        <mxCell id="nTX9dy1zklvWDv5KVKyq-109" value="promotion_id INT REFERENCES promotions(promotion_id)" style="shape=partialRectangle;overflow=hidden;connectable=0;fillColor=none;align=left;strokeColor=inherit;top=0;left=0;bottom=0;right=0;spacingLeft=6;fontStyle=5;" vertex="1" parent="nTX9dy1zklvWDv5KVKyq-107">
          <mxGeometry x="30" width="290" height="30" as="geometry">
            <mxRectangle width="290" height="30" as="alternateBounds" />
          </mxGeometry>
        </mxCell>
        <mxCell id="nTX9dy1zklvWDv5KVKyq-110" value="" style="shape=tableRow;horizontal=0;startSize=0;swimlaneHead=0;swimlaneBody=0;fillColor=none;collapsible=0;dropTarget=0;points=[[0,0.5],[1,0.5]];portConstraint=eastwest;strokeColor=inherit;top=0;left=0;right=0;bottom=1;" vertex="1" parent="nTX9dy1zklvWDv5KVKyq-106">
          <mxGeometry y="60" width="320" height="30" as="geometry" />
        </mxCell>
        <mxCell id="nTX9dy1zklvWDv5KVKyq-111" value="PK" style="shape=partialRectangle;overflow=hidden;connectable=0;fillColor=none;strokeColor=inherit;top=0;left=0;bottom=0;right=0;fontStyle=1;" vertex="1" parent="nTX9dy1zklvWDv5KVKyq-110">
          <mxGeometry width="30" height="30" as="geometry">
            <mxRectangle width="30" height="30" as="alternateBounds" />
          </mxGeometry>
        </mxCell>
        <mxCell id="nTX9dy1zklvWDv5KVKyq-112" value="car_id INT REFERENCES cars(car_id)" style="shape=partialRectangle;overflow=hidden;connectable=0;fillColor=none;align=left;strokeColor=inherit;top=0;left=0;bottom=0;right=0;spacingLeft=6;fontStyle=5;" vertex="1" parent="nTX9dy1zklvWDv5KVKyq-110">
          <mxGeometry x="30" width="290" height="30" as="geometry">
            <mxRectangle width="290" height="30" as="alternateBounds" />
          </mxGeometry>
        </mxCell>
        <mxCell id="nTX9dy1zklvWDv5KVKyq-113" value="financial_records" style="shape=table;startSize=30;container=1;collapsible=1;childLayout=tableLayout;fixedRows=1;rowLines=0;fontStyle=1;align=center;resizeLast=1;" vertex="1" parent="1">
          <mxGeometry x="575" y="2467.5" width="310" height="285" as="geometry" />
        </mxCell>
        <mxCell id="nTX9dy1zklvWDv5KVKyq-114" value="" style="shape=tableRow;horizontal=0;startSize=0;swimlaneHead=0;swimlaneBody=0;fillColor=none;collapsible=0;dropTarget=0;points=[[0,0.5],[1,0.5]];portConstraint=eastwest;strokeColor=inherit;top=0;left=0;right=0;bottom=1;" vertex="1" parent="nTX9dy1zklvWDv5KVKyq-113">
          <mxGeometry y="30" width="310" height="30" as="geometry" />
        </mxCell>
        <mxCell id="nTX9dy1zklvWDv5KVKyq-115" value="PK" style="shape=partialRectangle;overflow=hidden;connectable=0;fillColor=none;strokeColor=inherit;top=0;left=0;bottom=0;right=0;fontStyle=1;" vertex="1" parent="nTX9dy1zklvWDv5KVKyq-114">
          <mxGeometry width="30" height="30" as="geometry">
            <mxRectangle width="30" height="30" as="alternateBounds" />
          </mxGeometry>
        </mxCell>
        <mxCell id="nTX9dy1zklvWDv5KVKyq-116" value="order_id INT REFERENCES orders(order_id)" style="shape=partialRectangle;overflow=hidden;connectable=0;fillColor=none;align=left;strokeColor=inherit;top=0;left=0;bottom=0;right=0;spacingLeft=6;fontStyle=5;" vertex="1" parent="nTX9dy1zklvWDv5KVKyq-114">
          <mxGeometry x="30" width="280" height="30" as="geometry">
            <mxRectangle width="280" height="30" as="alternateBounds" />
          </mxGeometry>
        </mxCell>
        <mxCell id="nTX9dy1zklvWDv5KVKyq-117" value="" style="shape=tableRow;horizontal=0;startSize=0;swimlaneHead=0;swimlaneBody=0;fillColor=none;collapsible=0;dropTarget=0;points=[[0,0.5],[1,0.5]];portConstraint=eastwest;strokeColor=inherit;top=0;left=0;right=0;bottom=1;" vertex="1" parent="nTX9dy1zklvWDv5KVKyq-113">
          <mxGeometry y="60" width="310" height="30" as="geometry" />
        </mxCell>
        <mxCell id="nTX9dy1zklvWDv5KVKyq-118" value="PK" style="shape=partialRectangle;overflow=hidden;connectable=0;fillColor=none;strokeColor=inherit;top=0;left=0;bottom=0;right=0;fontStyle=1;" vertex="1" parent="nTX9dy1zklvWDv5KVKyq-117">
          <mxGeometry width="30" height="30" as="geometry">
            <mxRectangle width="30" height="30" as="alternateBounds" />
          </mxGeometry>
        </mxCell>
        <mxCell id="nTX9dy1zklvWDv5KVKyq-119" value="record_id SERIAL " style="shape=partialRectangle;overflow=hidden;connectable=0;fillColor=none;align=left;strokeColor=inherit;top=0;left=0;bottom=0;right=0;spacingLeft=6;fontStyle=5;" vertex="1" parent="nTX9dy1zklvWDv5KVKyq-117">
          <mxGeometry x="30" width="280" height="30" as="geometry">
            <mxRectangle width="280" height="30" as="alternateBounds" />
          </mxGeometry>
        </mxCell>
        <mxCell id="nTX9dy1zklvWDv5KVKyq-120" value="" style="shape=tableRow;horizontal=0;startSize=0;swimlaneHead=0;swimlaneBody=0;fillColor=none;collapsible=0;dropTarget=0;points=[[0,0.5],[1,0.5]];portConstraint=eastwest;strokeColor=inherit;top=0;left=0;right=0;bottom=0;" vertex="1" parent="nTX9dy1zklvWDv5KVKyq-113">
          <mxGeometry y="90" width="310" height="30" as="geometry" />
        </mxCell>
        <mxCell id="nTX9dy1zklvWDv5KVKyq-121" value="" style="shape=partialRectangle;overflow=hidden;connectable=0;fillColor=none;strokeColor=inherit;top=0;left=0;bottom=0;right=0;" vertex="1" parent="nTX9dy1zklvWDv5KVKyq-120">
          <mxGeometry width="30" height="30" as="geometry">
            <mxRectangle width="30" height="30" as="alternateBounds" />
          </mxGeometry>
        </mxCell>
        <mxCell id="nTX9dy1zklvWDv5KVKyq-122" value="record_type VARCHAR(50)" style="shape=partialRectangle;overflow=hidden;connectable=0;fillColor=none;align=left;strokeColor=inherit;top=0;left=0;bottom=0;right=0;spacingLeft=6;" vertex="1" parent="nTX9dy1zklvWDv5KVKyq-120">
          <mxGeometry x="30" width="280" height="30" as="geometry">
            <mxRectangle width="280" height="30" as="alternateBounds" />
          </mxGeometry>
        </mxCell>
        <mxCell id="nTX9dy1zklvWDv5KVKyq-123" value="" style="shape=tableRow;horizontal=0;startSize=0;swimlaneHead=0;swimlaneBody=0;fillColor=none;collapsible=0;dropTarget=0;points=[[0,0.5],[1,0.5]];portConstraint=eastwest;strokeColor=inherit;top=0;left=0;right=0;bottom=0;" vertex="1" parent="nTX9dy1zklvWDv5KVKyq-113">
          <mxGeometry y="120" width="310" height="30" as="geometry" />
        </mxCell>
        <mxCell id="nTX9dy1zklvWDv5KVKyq-124" value="" style="shape=partialRectangle;overflow=hidden;connectable=0;fillColor=none;strokeColor=inherit;top=0;left=0;bottom=0;right=0;" vertex="1" parent="nTX9dy1zklvWDv5KVKyq-123">
          <mxGeometry width="30" height="30" as="geometry">
            <mxRectangle width="30" height="30" as="alternateBounds" />
          </mxGeometry>
        </mxCell>
        <mxCell id="nTX9dy1zklvWDv5KVKyq-125" value="amount INT" style="shape=partialRectangle;overflow=hidden;connectable=0;fillColor=none;align=left;strokeColor=inherit;top=0;left=0;bottom=0;right=0;spacingLeft=6;" vertex="1" parent="nTX9dy1zklvWDv5KVKyq-123">
          <mxGeometry x="30" width="280" height="30" as="geometry">
            <mxRectangle width="280" height="30" as="alternateBounds" />
          </mxGeometry>
        </mxCell>
        <mxCell id="nTX9dy1zklvWDv5KVKyq-126" value="" style="shape=tableRow;horizontal=0;startSize=0;swimlaneHead=0;swimlaneBody=0;fillColor=none;collapsible=0;dropTarget=0;points=[[0,0.5],[1,0.5]];portConstraint=eastwest;strokeColor=inherit;top=0;left=0;right=0;bottom=0;" vertex="1" parent="nTX9dy1zklvWDv5KVKyq-113">
          <mxGeometry y="150" width="310" height="30" as="geometry" />
        </mxCell>
        <mxCell id="nTX9dy1zklvWDv5KVKyq-127" value="" style="shape=partialRectangle;overflow=hidden;connectable=0;fillColor=none;strokeColor=inherit;top=0;left=0;bottom=0;right=0;" vertex="1" parent="nTX9dy1zklvWDv5KVKyq-126">
          <mxGeometry width="30" height="30" as="geometry">
            <mxRectangle width="30" height="30" as="alternateBounds" />
          </mxGeometry>
        </mxCell>
        <mxCell id="nTX9dy1zklvWDv5KVKyq-128" value="record_date DATE" style="shape=partialRectangle;overflow=hidden;connectable=0;fillColor=none;align=left;strokeColor=inherit;top=0;left=0;bottom=0;right=0;spacingLeft=6;" vertex="1" parent="nTX9dy1zklvWDv5KVKyq-126">
          <mxGeometry x="30" width="280" height="30" as="geometry">
            <mxRectangle width="280" height="30" as="alternateBounds" />
          </mxGeometry>
        </mxCell>
        <mxCell id="nTX9dy1zklvWDv5KVKyq-129" value="" style="shape=tableRow;horizontal=0;startSize=0;swimlaneHead=0;swimlaneBody=0;fillColor=none;collapsible=0;dropTarget=0;points=[[0,0.5],[1,0.5]];portConstraint=eastwest;strokeColor=inherit;top=0;left=0;right=0;bottom=0;" vertex="1" parent="nTX9dy1zklvWDv5KVKyq-113">
          <mxGeometry y="180" width="310" height="30" as="geometry" />
        </mxCell>
        <mxCell id="nTX9dy1zklvWDv5KVKyq-130" value="" style="shape=partialRectangle;overflow=hidden;connectable=0;fillColor=none;strokeColor=inherit;top=0;left=0;bottom=0;right=0;" vertex="1" parent="nTX9dy1zklvWDv5KVKyq-129">
          <mxGeometry width="30" height="30" as="geometry">
            <mxRectangle width="30" height="30" as="alternateBounds" />
          </mxGeometry>
        </mxCell>
        <mxCell id="nTX9dy1zklvWDv5KVKyq-131" value="description TEXT" style="shape=partialRectangle;overflow=hidden;connectable=0;fillColor=none;align=left;strokeColor=inherit;top=0;left=0;bottom=0;right=0;spacingLeft=6;" vertex="1" parent="nTX9dy1zklvWDv5KVKyq-129">
          <mxGeometry x="30" width="280" height="30" as="geometry">
            <mxRectangle width="280" height="30" as="alternateBounds" />
          </mxGeometry>
        </mxCell>
        <mxCell id="nTX9dy1zklvWDv5KVKyq-134" value="" style="endArrow=classic;html=1;rounded=0;entryX=0.5;entryY=0;entryDx=0;entryDy=0;exitX=0.458;exitY=1.044;exitDx=0;exitDy=0;exitPerimeter=0;" edge="1" parent="1" source="nTX9dy1zklvWDv5KVKyq-20" target="nTX9dy1zklvWDv5KVKyq-39">
          <mxGeometry width="50" height="50" relative="1" as="geometry">
            <mxPoint x="790" y="2230" as="sourcePoint" />
            <mxPoint x="870" y="2270" as="targetPoint" />
          </mxGeometry>
        </mxCell>
        <mxCell id="nTX9dy1zklvWDv5KVKyq-135" value="" style="endArrow=classic;html=1;rounded=0;exitX=1.022;exitY=0.067;exitDx=0;exitDy=0;exitPerimeter=0;entryX=0.002;entryY=-0.111;entryDx=0;entryDy=0;entryPerimeter=0;" edge="1" parent="1" source="nTX9dy1zklvWDv5KVKyq-30" target="nTX9dy1zklvWDv5KVKyq-46">
          <mxGeometry width="50" height="50" relative="1" as="geometry">
            <mxPoint x="820" y="2320" as="sourcePoint" />
            <mxPoint x="870" y="2270" as="targetPoint" />
          </mxGeometry>
        </mxCell>
        <mxCell id="nTX9dy1zklvWDv5KVKyq-136" value="" style="endArrow=classic;html=1;rounded=0;entryX=0.5;entryY=0;entryDx=0;entryDy=0;exitX=0.531;exitY=1.077;exitDx=0;exitDy=0;exitPerimeter=0;" edge="1" parent="1" source="nTX9dy1zklvWDv5KVKyq-52" target="nTX9dy1zklvWDv5KVKyq-113">
          <mxGeometry width="50" height="50" relative="1" as="geometry">
            <mxPoint x="820" y="2320" as="sourcePoint" />
            <mxPoint x="870" y="2270" as="targetPoint" />
          </mxGeometry>
        </mxCell>
        <mxCell id="nTX9dy1zklvWDv5KVKyq-137" value="" style="endArrow=classic;html=1;rounded=0;exitX=1;exitY=0.5;exitDx=0;exitDy=0;entryX=-0.019;entryY=-0.089;entryDx=0;entryDy=0;entryPerimeter=0;" edge="1" parent="1" source="nTX9dy1zklvWDv5KVKyq-11" target="nTX9dy1zklvWDv5KVKyq-110">
          <mxGeometry width="50" height="50" relative="1" as="geometry">
            <mxPoint x="820" y="2400" as="sourcePoint" />
            <mxPoint x="870" y="2350" as="targetPoint" />
          </mxGeometry>
        </mxCell>
        <mxCell id="nTX9dy1zklvWDv5KVKyq-138" value="" style="endArrow=classic;html=1;rounded=0;entryX=1.022;entryY=0;entryDx=0;entryDy=0;entryPerimeter=0;exitX=0;exitY=0.5;exitDx=0;exitDy=0;" edge="1" parent="1" source="nTX9dy1zklvWDv5KVKyq-11" target="nTX9dy1zklvWDv5KVKyq-81">
          <mxGeometry width="50" height="50" relative="1" as="geometry">
            <mxPoint x="820" y="2310" as="sourcePoint" />
            <mxPoint x="870" y="2260" as="targetPoint" />
          </mxGeometry>
        </mxCell>
        <mxCell id="nTX9dy1zklvWDv5KVKyq-140" value="" style="endArrow=classic;html=1;rounded=0;exitX=0.483;exitY=1.044;exitDx=0;exitDy=0;exitPerimeter=0;" edge="1" parent="1" source="nTX9dy1zklvWDv5KVKyq-36" target="nTX9dy1zklvWDv5KVKyq-55">
          <mxGeometry width="50" height="50" relative="1" as="geometry">
            <mxPoint x="820" y="2470" as="sourcePoint" />
            <mxPoint x="870" y="2420" as="targetPoint" />
          </mxGeometry>
        </mxCell>
        <mxCell id="nTX9dy1zklvWDv5KVKyq-141" value="payments_id Int REFERENCES cars(paument_id)" style="shape=partialRectangle;overflow=hidden;connectable=0;fillColor=none;align=left;strokeColor=inherit;top=0;left=0;bottom=0;right=0;spacingLeft=6;" vertex="1" parent="1">
          <mxGeometry x="605" y="2680" width="280" height="30" as="geometry">
            <mxRectangle width="280" height="30" as="alternateBounds" />
          </mxGeometry>
        </mxCell>
        <mxCell id="nTX9dy1zklvWDv5KVKyq-142" value="" style="endArrow=classic;html=1;rounded=0;exitX=1;exitY=0.5;exitDx=0;exitDy=0;" edge="1" parent="1" source="nTX9dy1zklvWDv5KVKyq-62">
          <mxGeometry width="50" height="50" relative="1" as="geometry">
            <mxPoint x="820" y="2380" as="sourcePoint" />
            <mxPoint x="570" y="2595" as="targetPoint" />
          </mxGeometry>
        </mxCell>
        <mxCell id="nTX9dy1zklvWDv5KVKyq-143" value="" style="endArrow=classic;html=1;rounded=0;entryX=0.5;entryY=0;entryDx=0;entryDy=0;exitX=0.539;exitY=1.233;exitDx=0;exitDy=0;exitPerimeter=0;" edge="1" parent="1" source="nTX9dy1zklvWDv5KVKyq-110" target="nTX9dy1zklvWDv5KVKyq-90">
          <mxGeometry width="50" height="50" relative="1" as="geometry">
            <mxPoint x="780" y="2300" as="sourcePoint" />
            <mxPoint x="830" y="2250" as="targetPoint" />
          </mxGeometry>
        </mxCell>
      </root>
    </mxGraphModel>
  </diagram>
</mxfile>
